<?xml version="1.0" encoding="utf-8"?>
<!-- Generator: Adobe Illustrator 19.2.1, SVG Export Plug-In . SVG Version: 6.00 Build 0)  -->
<svg version="1.1" id="Calque_1" xmlns="http://www.w3.org/2000/svg" xmlns:xlink="http://www.w3.org/1999/xlink" x="0px" y="0px"
	 viewBox="0 0 595.3 841.9" style="enable-background:new 0 0 595.3 841.9;" xml:space="preserve">
<style type="text/css">
	.st0{fill:#FFFFFF;}
</style>
<g>
	<g>
		<path class="st0" d="M188,734.9c-67.3,0-134.6,0-201.9,0c0-208.7,0-417.3,0-626c91.7,0,183.3,0,274.9,0c-5,4.7-4.9,7,0.4,11.7
			c9,8,9.9,14.5,3.4,24.5c-2,3.1-3.9,6.3-6.1,9.1c-9,11.2-1.8,30.7,14.1,36.3c1.7,0.6,5.5-1.2,6.4-2.9c0.8-1.6-0.5-4.7-1.6-6.8
			c-0.5-1.1-2.5-1.4-3.8-2.2c-7.8-4.8-9.4-13.1-4.1-20.3c2.3-3.1,4.4-6.3,6.4-9.5c4.9-8.1,6.2-16.9,1.5-25.2
			c-3.1-5.5-8.3-9.8-12.5-14.6c10,0,20,0,30,0c-4.6,5-4.4,7.2,0.8,11.8c7.6,6.8,10.4,15,3.7,23.7c-2.5,3.1-4.2,6.8-6.7,9.9
			c-8.5,11.1-1.9,30,13.9,36.2c3.3,1.3,6.4-0.1,7.2-3.3c0.5-2-1.1-4.7-2.3-6.7c-0.7-1.1-2.6-1.4-3.8-2.2c-7.7-5.1-9.1-12.3-3.8-20
			c1.5-2.2,3.2-4.3,4.6-6.5c4.6-7.4,7.9-15,5.3-24c-2.4-8.3-8-14-14.7-18.9c10,0,20,0,30,0c-4.3,5.2-4.2,7.2,0.9,11.5
			c8.8,7.5,9.8,15.4,3.2,25c-1.3,1.9-2.3,4.1-3.9,5.8c-10.4,11.4-6,29.9,8.9,38c4.7,2.6,8.2,2.2,9.9-1.4c2.2-4.5-0.5-6.5-4.2-8.4
			c-9.3-4.9-11.2-13.2-5.2-21.9c0.9-1.4,2-2.7,3-4c9.3-12.3,9.8-24.8,1.2-35.8c-2.5-3.2-5.8-5.8-8.8-8.7c92.6,0,185.3,0,277.9,0
			c0,208.6,0,417.1,0,626c-137.3,0-274.6,0-411.9,0c1.9-0.7,3.7-1.4,5.6-2.1c27.9-9.4,33.3-44.5,13.1-62.1c-2.7-2.4-2.7-4.4-1.3-7.3
			c11.8-24.6,23.6-49.2,35.1-74c1.6-3.3,3.6-2.6,6.1-2c7.3,1.6,14.6,3.5,22,4.4c21.2,2.5,41.9-0.5,62.2-6.3c2.6-0.7,4.5-1.4,6.1,1.9
			c12.3,26.2,24.8,52.3,37.2,78.5c8.9,18.8,17.9,37.6,26.8,56.3c2.1,4.4,5.6,6.9,10.7,6.9c7.7,0,13.8-8.5,9.2-18
			c-18.2-37.8-36.1-75.7-54.1-113.6c-3.3-7-6.5-14.1-9.9-21.2c3.5-1.9,6.4-3.4,9.3-5c3-1.7,4.1-4.7,2.2-7.1
			c-1.4-1.7-4.6-2.5-7.1-2.7c-1.7-0.1-3.7,1.4-5.4,2.4c-2.9,1.6-4.8,1.4-6.1-2c-1.3-3.4-3-6.7-4.8-9.9c-0.6-1.1-2-2.6-3.1-2.6
			c-7.4-0.2-14.8-0.1-23.1-0.1c4,8.6,7.6,16.3,11.2,24.1c-23.5,9.5-63.9,10.9-82.5,1.9c3.9-8.3,7.8-16.7,12.1-25.9
			c-7.5,0-14.1,0.2-20.7-0.1c-3.4-0.2-5.2,1.2-6.4,4.2c-1.9,4.4-4.1,8.6-6.3,13.3c-3-1.7-5.4-3.1-7.9-4.5c-3-1.8-6-1.6-7.9,1.3
			c-2,3.1-1.2,6.1,2,8.2c2.9,1.9,5.7,3.8,8.6,5.8c-0.5,1.3-0.8,2.2-1.2,3.1c-12,25.1-24,50.1-35.8,75.3c-1.8,3.8-4,5.3-8.1,5.9
			c-13.3,2.1-22.8,9.6-28,22.1c-5.4,13.1-3.4,25.3,4.9,36.7C170.6,728.5,179.1,731.8,188,734.9z M93.3,389.2c0,8.7,0,16.9,0,25
			c-0.1,23,5.4,44.5,18.1,63.9c24.9,38.1,59.5,59.3,105.6,59.6c58.8,0.3,117.6,0.1,176.4,0c6,0,12.1-0.1,17.9-1.2
			c43-7.9,70.1-34.4,85.6-74.1c9-23.1,8.1-47.4,7.8-71.5c0-0.6-0.5-1.2-0.7-1.7C367.2,389.2,230.6,389.2,93.3,389.2z M93.7,377.4
			c137.1,0,273.8,0,410.3,0c0-10,0.6-19.7-0.1-29.2c-2.1-26.4-12.5-49.3-31.8-67.6c-20.3-19.2-45-27.8-72.7-28.6
			c-11.8-0.3-23.7-0.2-35.5-0.1c-2.7,0-3.8-0.9-5.1-3.4c-3.4-6.8-6.7-13.8-11.5-19.7c-20.5-25.2-76.7-25.2-93.1,18.1
			c-1.6,4.2-3.6,5-7.6,5c-13-0.2-26-0.5-39,0.2c-31.5,1.6-59.4,12.5-82.4,34.5C99.4,311.4,90.8,342.2,93.7,377.4z"/>
		<path d="M188,734.9c-8.9-3-17.4-6.4-23.2-14.5c-8.3-11.5-10.3-23.6-4.9-36.7c5.1-12.5,14.6-20,28-22.1c4.1-0.6,6.3-2.1,8.1-5.9
			c11.8-25.2,23.8-50.2,35.8-75.3c0.4-0.9,0.7-1.8,1.2-3.1c-2.9-1.9-5.8-3.9-8.6-5.8c-3.1-2.1-4-5.1-2-8.2c1.9-2.9,4.9-3.1,7.9-1.3
			c2.4,1.4,4.8,2.8,7.9,4.5c2.2-4.7,4.4-8.9,6.3-13.3c1.3-3,3-4.3,6.4-4.2c6.6,0.3,13.2,0.1,20.7,0.1c-4.3,9.2-8.2,17.6-12.1,25.9
			c18.6,9,59,7.6,82.5-1.9c-3.6-7.7-7.2-15.5-11.2-24.1c8.3,0,15.7-0.1,23.1,0.1c1.1,0,2.5,1.5,3.1,2.6c1.8,3.2,3.5,6.5,4.8,9.9
			c1.3,3.4,3.2,3.7,6.1,2c1.7-1,3.6-2.5,5.4-2.4c2.5,0.2,5.7,0.9,7.1,2.7c1.9,2.4,0.8,5.4-2.2,7.1c-2.9,1.6-5.8,3.1-9.3,5
			c3.3,7.2,6.6,14.2,9.9,21.2c18,37.9,35.9,75.8,54.1,113.6c4.6,9.5-1.5,18-9.2,18c-5.1,0-8.5-2.5-10.7-6.9
			c-9-18.8-17.9-37.6-26.8-56.3c-12.4-26.2-24.9-52.3-37.2-78.5c-1.5-3.3-3.5-2.6-6.1-1.9c-20.4,5.8-41.1,8.8-62.2,6.3
			c-7.4-0.9-14.7-2.8-22-4.4c-2.5-0.5-4.5-1.3-6.1,2c-11.6,24.7-23.3,49.3-35.1,74c-1.4,2.9-1.4,4.9,1.3,7.3
			c20.2,17.7,14.8,52.8-13.1,62.1c-1.9,0.6-3.7,1.4-5.6,2.1C196,734.9,192,734.9,188,734.9z M211,697.6c-0.1-9.3-7.9-17-17.3-16.9
			c-9.4,0.1-16.9,7.9-16.8,17.4c0.1,9.2,8.3,16.9,17.6,16.7C203.7,714.6,211,706.9,211,697.6z"/>
		<path d="M334,108.9c3,2.9,6.3,5.5,8.8,8.7c8.6,11.1,8.1,23.5-1.2,35.8c-1,1.3-2,2.6-3,4c-5.9,8.8-4.1,17,5.2,21.9
			c3.7,2,6.3,4,4.2,8.4c-1.7,3.6-5.2,3.9-9.9,1.4c-14.9-8.1-19.3-26.6-8.9-38c1.5-1.7,2.5-3.9,3.9-5.8c6.6-9.6,5.6-17.5-3.2-25
			c-5-4.3-5.2-6.3-0.9-11.5C330.7,108.9,332.3,108.9,334,108.9z"/>
		<path d="M299,108.9c6.8,4.8,12.3,10.6,14.7,18.9c2.6,9-0.7,16.6-5.3,24c-1.4,2.2-3.1,4.3-4.6,6.5c-5.3,7.6-3.9,14.8,3.8,20
			c1.2,0.8,3.1,1.1,3.8,2.2c1.2,2,2.8,4.7,2.3,6.7c-0.7,3.2-3.9,4.6-7.2,3.3c-15.7-6.2-22.4-25.1-13.9-36.2c2.4-3.2,4.2-6.8,6.7-9.9
			c6.8-8.6,3.9-16.8-3.7-23.7c-5.2-4.7-5.4-6.9-0.8-11.8C296.3,108.9,297.7,108.9,299,108.9z"/>
		<path d="M265,108.9c4.2,4.8,9.4,9.1,12.5,14.6c4.7,8.3,3.3,17.1-1.5,25.2c-2,3.3-4.1,6.5-6.4,9.5c-5.3,7.3-3.7,15.5,4.1,20.3
			c1.3,0.8,3.3,1.1,3.8,2.2c1.1,2.1,2.4,5.2,1.6,6.8c-0.9,1.7-4.7,3.5-6.4,2.9c-15.9-5.6-23.1-25.1-14.1-36.3c2.3-2.8,4.1-6,6.1-9.1
			c6.5-10,5.6-16.5-3.4-24.5c-5.3-4.7-5.4-7-0.4-11.7C262.3,108.9,263.7,108.9,265,108.9z"/>
		<path d="M93.3,389.2c137.3,0,273.9,0,410.7,0c0.2,0.6,0.7,1.2,0.7,1.7c0.4,24.2,1.2,48.4-7.8,71.5c-15.5,39.7-42.6,66.2-85.6,74.1
			c-5.9,1.1-11.9,1.2-17.9,1.2c-58.8,0.1-117.6,0.3-176.4,0c-46.1-0.2-80.7-21.4-105.6-59.6c-12.7-19.4-18.2-40.9-18.1-63.9
			C93.3,406.1,93.3,397.9,93.3,389.2z"/>
		<path d="M93.7,377.4c-2.9-35.2,5.7-66,31.6-90.8c23.1-22,50.9-32.9,82.4-34.5c13-0.7,26-0.3,39-0.2c4,0.1,6-0.8,7.6-5
			c16.4-43.3,72.6-43.3,93.1-18.1c4.7,5.8,8.1,12.9,11.5,19.7c1.3,2.5,2.3,3.4,5.1,3.4c11.8-0.1,23.7-0.3,35.5,0.1
			c27.6,0.8,52.4,9.4,72.7,28.6c19.3,18.3,29.7,41.1,31.8,67.6c0.8,9.6,0.1,19.2,0.1,29.2C367.5,377.4,230.8,377.4,93.7,377.4z
			 M265,251.6c27.7,0,55.1,0,82.6,0c-4.5-16.1-19.3-28.3-40.2-28.3C287.3,223.3,269.3,234.8,265,251.6z"/>
		<path class="st0" d="M211,697.6c0.1,9.3-7.3,17-16.4,17.2c-9.3,0.2-17.5-7.5-17.6-16.7c-0.1-9.5,7.4-17.3,16.8-17.4
			C203,680.6,210.9,688.2,211,697.6z"/>
		<path class="st0" d="M265,251.6c4.3-16.8,22.2-28.3,42.3-28.3c20.9,0,35.8,12.1,40.2,28.3C320.1,251.6,292.7,251.6,265,251.6z"/>
	</g>
</g>
</svg>
