<?xml version="1.0" encoding="utf-8"?>
<!-- Generator: Adobe Illustrator 19.2.1, SVG Export Plug-In . SVG Version: 6.00 Build 0)  -->
<svg version="1.1" id="Calque_1" xmlns="http://www.w3.org/2000/svg" xmlns:xlink="http://www.w3.org/1999/xlink" x="0px" y="0px"
	 viewBox="0 0 595.3 841.9" style="enable-background:new 0 0 595.3 841.9;" xml:space="preserve">
<style type="text/css">
	.st0{fill:#FFFFFF;}
</style>
<g>
	<g>
		<path class="st0" d="M101,198.9c131.6,0,263.2,0,394.9,0c0,148.9,0,297.8,0,446.8c-131.6,0-263.2,0-394.9,0
			C101,496.9,101,347.9,101,198.9z M299.1,310.9c-1.4-3-2.3-4.8-3.1-6.6c-12.2-27-24.4-54-36.7-80.9c-5.1-11.3-15.2-12.6-23.2-3
			c-9.6,11.5-19.1,23.1-28.7,34.7c-12.9,15.7-25.9,31.3-38.8,47c-8,9.8-4.7,19.4,7.7,22.4c0.6,0.2,1.3,0.3,1.9,0.4
			c23.7,5.4,47.4,10.7,71.1,16.1c1.1,0.2,2.1,0.8,3.1,1.2c-36.6,0.7-72.9,0.6-109.2,0.7c-10,0-14.9,5.5-14.1,15.5
			c0.7,7.6,1.4,15.3,2.1,22.9c3.5,37.8,7.1,75.6,10.6,113.4c3.5,37.6,6.8,75.3,10.3,113c0.9,9.4,5.3,13.3,14.6,13.3
			c88,0,176,0,264,0c9.6,0,14-4.1,14.9-13.6c2.7-28.7,5.3-57.4,8-86.1c5-53.9,10-107.8,15-161.7c1.1-11.6-3.5-16.7-15.3-16.7
			c-34.3,0-68.7,0-103,0c-1.6,0-3.3,0-4.9,0c1.1-1.3,2.2-1.7,3.3-1.9c24.3-5.5,48.7-11,73-16.6c12.1-2.8,15.4-12.6,7.6-22.1
			c-22.2-27-44.5-54-66.8-81c-9-10.9-18.8-9.6-24.5,3.2c-8.4,18.6-16.8,37.3-25.3,56C308.5,290.2,304,300,299.1,310.9z"/>
		<path d="M299.1,310.9c5-10.9,9.4-20.7,13.9-30.5c8.4-18.6,16.8-37.3,25.3-56c5.8-12.8,15.5-14.1,24.5-3.2c22.3,27,44.6,54,66.8,81
			c7.8,9.5,4.5,19.3-7.6,22.1c-24.3,5.6-48.7,11.1-73,16.6c-1.1,0.3-2.2,0.7-3.3,1.9c1.6,0,3.3,0,4.9,0c34.3,0,68.7,0,103,0
			c11.7,0,16.3,5.1,15.3,16.7c-5,53.9-10,107.8-15,161.7c-2.7,28.7-5.3,57.4-8,86.1c-0.9,9.5-5.3,13.6-14.9,13.6c-88,0-176,0-264,0
			c-9.3,0-13.8-4-14.6-13.3c-3.5-37.6-6.9-75.3-10.3-113c-3.5-37.8-7.1-75.6-10.6-113.4c-0.7-7.6-1.4-15.3-2.1-22.9
			c-0.9-10.1,4-15.5,14.1-15.5c36.3,0,72.7,0,109.2-0.7c-1-0.4-2.1-1-3.1-1.2c-23.7-5.4-47.4-10.7-71.1-16.1
			c-0.6-0.1-1.3-0.3-1.9-0.4c-12.4-3-15.7-12.6-7.7-22.4c12.9-15.7,25.9-31.4,38.8-47c9.5-11.6,19-23.2,28.7-34.7
			c8-9.5,18-8.2,23.2,3c12.3,27,24.5,54,36.7,80.9C296.8,306.1,297.6,307.8,299.1,310.9z M421.8,595.8c7-76.2,14.1-151.9,21.1-227.9
			c-32.6,0-64.6,0-96.8,0c0,76.1,0,151.9,0,227.9C371.4,595.8,396.3,595.8,421.8,595.8z M252.1,595.8c0-76.3,0-152,0-227.8
			c-32.4,0-64.5,0-96.9,0c7.1,76.2,14.1,152,21.1,227.8C201.8,595.8,226.8,595.8,252.1,595.8z M320.5,595.9c0-76.3,0-152,0-227.9
			c-14.4,0-28.5,0-42.8,0c0,76.1,0,152,0,227.9C292.1,595.9,306.1,595.9,320.5,595.9z M199.3,304c25.9,5.9,51,11.5,77.2,17.4
			c-11.1-24.5-21.6-47.7-32.5-71.6C228.8,268.2,214.3,285.8,199.3,304z M398.8,304c-15.1-18.4-29.7-35.9-44.7-54.2
			c-11,24.2-21.4,47.4-32.4,71.7C347.9,315.6,373,309.9,398.8,304z"/>
		<path class="st0" d="M421.8,595.8c-25.5,0-50.4,0-75.8,0c0-76,0-151.8,0-227.9c32.2,0,64.3,0,96.8,0
			C435.9,443.9,428.9,519.6,421.8,595.8z"/>
		<path class="st0" d="M252.1,595.8c-25.3,0-50.2,0-75.8,0c-7-75.8-14-151.7-21.1-227.8c32.4,0,64.5,0,96.9,0
			C252.1,443.8,252.1,519.5,252.1,595.8z"/>
		<path class="st0" d="M320.5,595.9c-14.4,0-28.3,0-42.8,0c0-76,0-151.8,0-227.9c14.2,0,28.3,0,42.8,0
			C320.5,443.8,320.5,519.6,320.5,595.9z"/>
		<path class="st0" d="M199.3,304c15.1-18.3,29.5-35.8,44.7-54.2c10.8,23.9,21.4,47.1,32.5,71.6C250.3,315.6,225.2,309.9,199.3,304z
			"/>
		<path class="st0" d="M398.8,304c-25.8,5.9-50.9,11.5-77.1,17.5c11-24.2,21.4-47.4,32.4-71.7C369.1,268.1,383.6,285.7,398.8,304z"
			/>
	</g>
</g>
</svg>
