<?xml version="1.0" encoding="utf-8"?>
<!-- Generator: Adobe Illustrator 19.2.1, SVG Export Plug-In . SVG Version: 6.00 Build 0)  -->
<svg version="1.1" id="Calque_1" xmlns="http://www.w3.org/2000/svg" xmlns:xlink="http://www.w3.org/1999/xlink" x="0px" y="0px"
	 viewBox="0 0 595.3 841.9" style="enable-background:new 0 0 595.3 841.9;" xml:space="preserve">
<style type="text/css">
	.st0{fill:#FFFFFF;}
</style>
<g>
	<g>
		<path class="st0" d="M475,108.9c45.6,0,91.3,0,137,0c0,208.5,0,417.1,0,626c-108,0-216,0-324,0c1.3-0.3,2.6-0.7,3.9-0.8
			c12.1-1.4,24.2-2.4,36.2-4.3c11.3-1.8,22.7-4,32.4-10.8c5.1-3.6,5.2-7.3,0.4-11.2c-1.3-1-2.7-2.1-4.3-2.6c-11-3.1-22-6.1-33.1-9.2
			c-1.2-0.3-2.5-0.7-3.5-1.4c-2.6-1.9-4.7-4.8-7.5-5.7c-6.8-2.1-13.8-3.7-20.8-4.7c-3.9-0.6-4.9-1.9-4.9-5.7
			c0.1-80.7,0-161.3,0.2-242c0-2.4,1.1-5.3,2.7-7.1c14.4-17,29-33.8,43.6-50.7c28.7-33.1,57.4-66.1,86-99.3c2.5-2.9,4.2-3.5,7.8-1.8
			c17.9,8.6,36.8,10.8,56,6.6c37.2-8,63.7-37.1,69.3-75c6.2-42.6-21.1-84.8-62.5-96.5C484.9,111.4,480,110.2,475,108.9z"/>
		<path class="st0" d="M242,734.9c-85.3,0-170.6,0-256,0c0-208.6,0-417.1,0-626c156.3,0,312.6,0,469,0c-1.8,0.5-3.5,1-5.3,1.4
			c-36.7,7.9-60.6,29.6-70.7,65.9c-1.4,5.1-2.1,10.4-3.2,16c-2.1,0-4,0-6,0c-62,0-124,0-186,0c-43,0-86,0-129,0
			c-3.8,0-8.1,0.4-9,4.5c-0.6,2.7,0.4,6.8,2.2,9c14.4,17.2,29.2,34.2,43.9,51.1c24.7,28.5,49.6,57,74.3,85.6
			c24.9,28.8,49.9,57.6,74.6,86.6c1.8,2.1,3.1,5.5,3.1,8.4c0.2,80,0.1,160,0.1,240c0,1.8,0,3.6,0,5.3c-8.2,1.5-15.9,2.5-23.5,4.4
			c-3.9,1-8.5,2.7-10.6,5.6c-1.9,2.7-3.8,3.6-6.5,4.1c-3.6,0.7-7.3,1-10.7,2.2c-7.5,2.6-15.1,5-22.2,8.7c-5.5,2.8-5.2,8,0.1,11.4
			c3.1,1.9,6.3,4.1,9.7,4.9c12.1,2.9,24.3,5.6,36.5,7.8C225.1,733.3,233.6,733.9,242,734.9z"/>
		<path d="M242,734.9c-8.4-1-16.9-1.6-25.2-3.1c-12.3-2.2-24.4-4.9-36.5-7.8c-3.4-0.8-6.6-3-9.7-4.9c-5.3-3.3-5.6-8.5-0.1-11.4
			c7-3.6,14.7-6.1,22.2-8.7c3.4-1.2,7.2-1.5,10.7-2.2c2.7-0.5,4.5-1.4,6.5-4.1c2.1-2.9,6.8-4.7,10.6-5.6c7.5-1.9,15.3-2.9,23.5-4.4
			c0-1.7,0-3.5,0-5.3c0-80,0-160-0.1-240c0-2.8-1.3-6.2-3.1-8.4c-24.8-29-49.7-57.8-74.6-86.6c-24.7-28.6-49.5-57-74.3-85.6
			c-14.7-17-29.5-33.9-43.9-51.1c-1.8-2.2-2.8-6.2-2.2-9c0.9-4.1,5.2-4.5,9-4.5c43,0,86,0,129,0c62,0,124,0,186,0c2,0,3.9,0,6,0
			c1.1-5.6,1.8-10.9,3.2-16c10.1-36.3,34-58.1,70.7-65.9c1.8-0.4,3.5-0.9,5.3-1.4c6.7,0,13.3,0,20,0c5,1.3,9.9,2.5,14.9,3.9
			c41.5,11.7,68.8,53.9,62.5,96.5c-5.5,37.9-32,66.9-69.3,75c-19.2,4.2-38.2,1.9-56-6.6c-3.6-1.7-5.3-1.1-7.8,1.8
			c-28.6,33.2-57.3,66.2-86,99.3c-14.6,16.9-29.2,33.7-43.6,50.7c-1.6,1.8-2.7,4.7-2.7,7.1c-0.1,80.7-0.1,161.3-0.2,242
			c0,3.7,1,5.1,4.9,5.7c7,1,14.1,2.6,20.8,4.7c2.8,0.9,4.9,3.9,7.5,5.7c1,0.7,2.3,1.1,3.5,1.4c11,3.1,22.1,6,33.1,9.2
			c1.5,0.4,3,1.5,4.3,2.6c4.8,3.9,4.7,7.6-0.4,11.2c-9.7,6.8-21.1,9-32.4,10.8c-12,1.9-24.1,2.9-36.2,4.3c-1.3,0.2-2.6,0.6-3.9,0.8
			C272.7,734.9,257.3,734.9,242,734.9z M67.6,206.7c5,5.9,9.2,11,13.5,16c24.8,28.5,49.6,57,74.3,85.5c30.3,35,60.4,70.1,90.7,105
			c1.4,1.6,4.1,2.9,6.3,3c8.7,0.3,17.3,0.3,26,0c2.1-0.1,4.8-1.4,6.2-3c7-7.8,13.7-15.9,20.6-23.8c24.9-28.7,49.8-57.3,74.6-85.9
			c26.5-30.6,52.9-61.2,79.3-91.8c1.2-1.4,2.3-2.9,4-5C331,206.7,200,206.7,67.6,206.7z M432.7,264c22.7,12.8,58.2,11.8,84-13.3
			c23-22.4,30.6-58.3,12.3-90.5c-16.7-29.5-52.8-43.8-86.2-34c-28.5,8.4-53.2,39.6-51.7,65.9c1.8,0,3.5,0,5.3,0
			c26.7,0,53.3-0.1,80,0.2c3,0,7,1.9,8.8,4.2c2.3,3,0.1,6.5-2.4,9.3c-9.2,10.5-18.3,21.2-27.4,31.7C448.1,246.3,440.6,255,432.7,264
			z"/>
		<path class="st0" d="M67.6,206.7c132.3,0,263.4,0,395.6,0c-1.7,2.1-2.8,3.6-4,5c-26.4,30.6-52.9,61.2-79.3,91.8
			c-24.8,28.7-49.8,57.3-74.6,85.9c-6.9,7.9-13.5,16-20.6,23.8c-1.5,1.6-4.1,2.9-6.2,3c-8.7,0.3-17.3,0.3-26,0
			c-2.2-0.1-4.9-1.4-6.3-3c-30.3-34.9-60.5-70-90.7-105c-24.7-28.6-49.6-57-74.3-85.5C76.8,217.7,72.6,212.6,67.6,206.7z
			 M166.9,298.7c10.8,12.5,20.6,24,30.5,35.4c15.5,18,31.3,35.8,46.6,54c11,13,10.8,13.3,27.8,12.9c2.1-0.1,4.9-1.2,6.3-2.8
			c25.1-28.7,50-57.5,74.9-86.3c3.7-4.3,7.3-8.7,11.5-13.7c-27.1-4.6-53.2-6.9-79.6-4.5c-10.1,0.9-19.7,3.5-28.4,8.7
			c-7.9,4.8-16.7,6.6-25.7,6.9c-16.3,0.5-32.2-2-47.9-6.2C178,301.8,173.1,300.4,166.9,298.7z"/>
		<path class="st0" d="M432.7,264c7.8-9,15.3-17.7,22.8-26.4c9.1-10.6,18.2-21.2,27.4-31.7c2.5-2.8,4.7-6.3,2.4-9.3
			c-1.8-2.3-5.7-4.2-8.8-4.2c-26.7-0.3-53.3-0.2-80-0.2c-1.8,0-3.6,0-5.3,0c-1.5-26.3,23.2-57.5,51.7-65.9
			c33.4-9.8,69.5,4.5,86.2,34c18.3,32.2,10.6,68.1-12.3,90.5C491,275.8,455.5,276.8,432.7,264z"/>
		<path d="M166.9,298.7c6.2,1.7,11.1,3.1,16,4.4c15.7,4.2,31.6,6.7,47.9,6.2c9.1-0.3,17.8-2.1,25.7-6.9c8.7-5.3,18.3-7.8,28.4-8.7
			c26.4-2.4,52.5-0.1,79.6,4.5c-4.2,5-7.8,9.4-11.5,13.7c-24.9,28.8-49.8,57.6-74.9,86.3c-1.4,1.6-4.1,2.8-6.3,2.8
			c-17,0.5-16.8,0.2-27.8-12.9c-15.3-18.2-31-36-46.6-54C187.5,322.7,177.7,311.2,166.9,298.7z"/>
	</g>
</g>
</svg>
