<?xml version="1.0" encoding="utf-8"?>
<!-- Generator: Adobe Illustrator 16.0.0, SVG Export Plug-In . SVG Version: 6.00 Build 0)  -->
<!DOCTYPE svg PUBLIC "-//W3C//DTD SVG 1.1//EN" "http://www.w3.org/Graphics/SVG/1.1/DTD/svg11.dtd">
<svg version="1.1" id="Calque_1" xmlns="http://www.w3.org/2000/svg" xmlns:xlink="http://www.w3.org/1999/xlink" x="0px" y="0px"
	 width="280px" height="60px" viewBox="0 0 280 60" enable-background="new 0 0 280 60" xml:space="preserve">
<path fill="#A4CF8F" d="M220.637,0.015c-14.713,0.267-88.419,2.015-110.561,1.153c-12.566-0.49-25.13-0.01-37.698-0.49
	c-19.305-0.737-38.52,1.024-57.805,1.45C10.428,2.22,0.463,0.53,0.213,7.1c-0.343,9.112-0.13,18.234-0.036,27.35
	C0.245,41.125-0.06,47.82,0.01,54.48c0.025,2.223-0.535,4.619,18.895,5.084c35.193,0.841,113.704,0.178,148.89,0.32
	c21.072,0.085,42.139-0.26,63.21-0.087c10.72,0.088,21.443,0.095,32.16-0.233c5.651-0.174,16.463,1.824,16.667-7.032
	c0.268-11.617-0.186-23.394-0.307-35.03c-0.033-3.25,1.986-13.164-2.064-14.166c-4.943-1.223-9.96-2.41-14.993-2.28
	c-4.772,0.124-32.649-1.21-41.829-1.04L220.637,0.015z"/>
</svg>
