<?xml version="1.0" encoding="UTF-8" standalone="no"?>
<!-- Generator: Adobe Illustrator 19.2.1, SVG Export Plug-In . SVG Version: 6.00 Build 0)  -->

<svg
   xmlns:dc="http://purl.org/dc/elements/1.1/"
   xmlns:cc="http://creativecommons.org/ns#"
   xmlns:rdf="http://www.w3.org/1999/02/22-rdf-syntax-ns#"
   xmlns:svg="http://www.w3.org/2000/svg"
   xmlns="http://www.w3.org/2000/svg"
   xmlns:sodipodi="http://sodipodi.sourceforge.net/DTD/sodipodi-0.dtd"
   xmlns:inkscape="http://www.inkscape.org/namespaces/inkscape"
   version="1.1"
   id="_x30_"
   x="0px"
   y="0px"
   viewBox="0 0 612 792"
   style="enable-background:new 0 0 612 792;"
   xml:space="preserve"
   inkscape:version="0.91 r13725"
   sodipodi:docname="kerden-logo.svg"><metadata
     id="metadata32"><rdf:RDF><cc:Work
         rdf:about=""><dc:format>image/svg+xml</dc:format><dc:type
           rdf:resource="http://purl.org/dc/dcmitype/StillImage" /><dc:title></dc:title></cc:Work></rdf:RDF></metadata><defs
     id="defs30" /><sodipodi:namedview
     pagecolor="#ffffff"
     bordercolor="#666666"
     borderopacity="1"
     objecttolerance="10"
     gridtolerance="10"
     guidetolerance="10"
     inkscape:pageopacity="0"
     inkscape:pageshadow="2"
     inkscape:window-width="1920"
     inkscape:window-height="1018"
     id="namedview28"
     showgrid="false"
     inkscape:zoom="0.5959596"
     inkscape:cx="511.16731"
     inkscape:cy="513.74536"
     inkscape:window-x="1272"
     inkscape:window-y="162"
     inkscape:window-maximized="1"
     inkscape:current-layer="_x30_" /><style
     type="text/css"
     id="style3">
	.st0{fill:none;stroke:#73E262;stroke-width:7;stroke-linecap:round;stroke-linejoin:round;stroke-miterlimit:10;}
	.st1{fill:#829080;}
	.st2{font-family:'BandaRegular';}
	.st3{font-size:50px;}
</style><g
     id="LINE"
     transform="matrix(3.8775997,0,0,3.8775997,-868.61891,-1052.2693)"><line
       class="st0"
       x1="343.89999"
       y1="289.5"
       x2="277.39999"
       y2="356.10001"
       id="line6"
       style="fill:none;stroke:#73e262;stroke-width:7;stroke-linecap:round;stroke-linejoin:round;stroke-miterlimit:10" /></g><g
     id="SPLINE_6_"
     transform="matrix(3.8775997,0,0,3.8775997,-868.61891,-1052.2693)"><path
       class="st0"
       d="m 268.8,302.8 c 0,11.4 0,22.8 0,34.2 0,15.8 11.2,27 27,27 20.7,0 41.5,-16.2 74.7,-48"
       id="path9"
       inkscape:connector-curvature="0"
       style="fill:none;stroke:#73e262;stroke-width:7;stroke-linecap:round;stroke-linejoin:round;stroke-miterlimit:10" /></g><g
     id="LINE_1_"
     transform="matrix(3.8775997,0,0,3.8775997,-868.61891,-1052.2693)"><line
       class="st0"
       x1="343.79999"
       y1="459.10001"
       x2="277.39999"
       y2="392.70001"
       id="line12"
       style="fill:none;stroke:#73e262;stroke-width:7;stroke-linecap:round;stroke-linejoin:round;stroke-miterlimit:10" /></g><g
     id="SPLINE_7_"
     transform="matrix(3.8775997,0,0,3.8775997,-868.61891,-1052.2693)"><path
       class="st0"
       d="m 277.4,392.7 c -8,-8 -19,-10.2 -29.4,-5.8 -10.4,4.3 -16.7,13.7 -16.7,24.9 0,11.4 0,22.8 0,34.2 0,11 7.8,18.7 18.7,18.7 11,0 18.7,-7.8 18.7,-18.7 0,-11.4 0,-22.8 0,-34.2 0,-15.8 11.2,-27 27,-27 20.6,0 41.5,16.2 74.5,47.8"
       id="path15"
       inkscape:connector-curvature="0"
       style="fill:none;stroke:#73e262;stroke-width:7;stroke-linecap:round;stroke-linejoin:round;stroke-miterlimit:10" /></g><g
     id="ARC"
     transform="matrix(3.8775997,0,0,3.8775997,-868.61891,-1052.2693)"><path
       class="st0"
       d="m 343.8,459.1 c 7.2,7.4 19.1,7.5 26.5,0.3 7.4,-7.2 7.5,-19.1 0.3,-26.5 -0.1,-0.1 -0.2,-0.2 -0.3,-0.3"
       id="path18"
       inkscape:connector-curvature="0"
       style="fill:none;stroke:#73e262;stroke-width:7;stroke-linecap:round;stroke-linejoin:round;stroke-miterlimit:10" /></g><g
     id="ARC_1_"
     transform="matrix(3.8775997,0,0,3.8775997,-868.61891,-1052.2693)"><path
       class="st0"
       d="m 370.4,316 c 7.3,-7.3 7.3,-19.2 0,-26.5 -7.3,-7.3 -19.2,-7.3 -26.5,0"
       id="path21"
       inkscape:connector-curvature="0"
       style="fill:none;stroke:#73e262;stroke-width:7;stroke-linecap:round;stroke-linejoin:round;stroke-miterlimit:10" /></g><g
     id="LWPOLYLINE_4_"
     transform="matrix(3.8775997,0,0,3.8775997,-868.61891,-1052.2693)"><path
       class="st0"
       d="m 268.8,302.8 c 0,-10.3 -8.4,-18.7 -18.7,-18.7 -10.3,0 -18.7,8.4 -18.7,18.7 l 0,34.2 c 0,14.9 12.1,27 27,27 6.3,0.4 14.9,-3.2 19.1,-7.9"
       id="path24"
       inkscape:connector-curvature="0"
       style="fill:none;stroke:#73e262;stroke-width:7;stroke-linecap:round;stroke-linejoin:round;stroke-miterlimit:10" /></g></svg>