<?xml version="1.0" encoding="utf-8"?>
<!-- Generator: Adobe Illustrator 19.2.1, SVG Export Plug-In . SVG Version: 6.00 Build 0)  -->
<svg version="1.1" id="_x30_" xmlns="http://www.w3.org/2000/svg" xmlns:xlink="http://www.w3.org/1999/xlink" x="0px" y="0px"
	 viewBox="0 0 612 792" style="enable-background:new 0 0 612 792;" xml:space="preserve">
<style type="text/css">
	.st0{fill:none;stroke:#73E262;stroke-width:7;stroke-linecap:round;stroke-linejoin:round;stroke-miterlimit:10;}
	.st1{fill:#829080;}
	.st2{font-family:'BandaRegular';}
	.st3{font-size:145.1687px;}
</style>
<g id="LINE">
	<line class="st0" x1="59.9" y1="298" x2="-6.6" y2="364.6"/>
</g>
<g id="SPLINE_6_">
	<path class="st0" d="M-15.2,311.3c0,11.4,0,22.8,0,34.2c0,15.8,11.2,27,27,27c20.7,0,41.5-16.2,74.7-48"/>
</g>
<g id="LINE_1_">
	<line class="st0" x1="59.8" y1="467.6" x2="-6.6" y2="401.2"/>
</g>
<g id="SPLINE_7_">
	<path class="st0" d="M-6.6,401.2c-8-8-19-10.2-29.4-5.8c-10.4,4.3-16.7,13.7-16.7,24.9c0,11.4,0,22.8,0,34.2
		c0,11,7.8,18.7,18.7,18.7c11,0,18.7-7.8,18.7-18.7c0-11.4,0-22.8,0-34.2c0-15.8,11.2-27,27-27c20.6,0,41.5,16.2,74.5,47.8"/>
</g>
<g id="ARC">
	<path class="st0" d="M59.8,467.6c7.2,7.4,19.1,7.5,26.5,0.3c7.4-7.2,7.5-19.1,0.3-26.5c-0.1-0.1-0.2-0.2-0.3-0.3"/>
</g>
<g id="ARC_1_">
	<path class="st0" d="M86.4,324.5c7.3-7.3,7.3-19.2,0-26.5c-7.3-7.3-19.2-7.3-26.5,0"/>
</g>
<g id="LWPOLYLINE_4_">
	<path class="st0" d="M-15.2,311.3c0-10.3-8.4-18.7-18.7-18.7c-10.3,0-18.7,8.4-18.7,18.7v34.2c0,14.9,12.1,27,27,27
		c6.3,0.4,14.9-3.2,19.1-7.9"/>
</g>
<text transform="matrix(1 0 0 1 186.4014 430.5322)" class="st1 st2 st3">KERDEN</text>
</svg>
