<?xml version="1.0" encoding="utf-8"?>
<!-- Generator: Adobe Illustrator 16.0.0, SVG Export Plug-In . SVG Version: 6.00 Build 0)  -->
<!DOCTYPE svg PUBLIC "-//W3C//DTD SVG 1.1//EN" "http://www.w3.org/Graphics/SVG/1.1/DTD/svg11.dtd">
<svg version="1.1"
	 id="_x30_" xmlns:dc="http://purl.org/dc/elements/1.1/" xmlns:cc="http://creativecommons.org/ns#" xmlns:rdf="http://www.w3.org/1999/02/22-rdf-syntax-ns#" xmlns:svg="http://www.w3.org/2000/svg" xmlns:sodipodi="http://sodipodi.sourceforge.net/DTD/sodipodi-0.dtd" xmlns:inkscape="http://www.inkscape.org/namespaces/inkscape" sodipodi:docname="kerden-logo.svg" inkscape:version="0.91 r13725"
	 xmlns="http://www.w3.org/2000/svg" xmlns:xlink="http://www.w3.org/1999/xlink" x="0px" y="0px" width="483.375px" height="600px"
	 viewBox="0 0 483.375 600" enable-background="new 0 0 483.375 600" xml:space="preserve">
<sodipodi:namedview  inkscape:cy="513.74536" inkscape:cx="511.16731" inkscape:zoom="0.5959596" showgrid="false" guidetolerance="10" gridtolerance="10" objecttolerance="10" borderopacity="1" pagecolor="#ffffff" bordercolor="#666666" id="namedview28" inkscape:current-layer="_x30_" inkscape:window-maximized="1" inkscape:window-y="162" inkscape:window-x="1272" inkscape:window-height="1018" inkscape:window-width="1920" inkscape:pageshadow="2" inkscape:pageopacity="0">
	</sodipodi:namedview>
<g id="line6">
	<path fill="#A4CF8F" d="M157.061,250.329c-2.107,0-4.214-0.803-5.823-2.41c-3.222-3.217-3.225-8.435-0.009-11.656L365.903,21.265
		c3.217-3.221,8.437-3.224,11.656-0.008c3.221,3.216,3.227,8.434,0.009,11.655L162.894,247.91
		C161.284,249.522,159.173,250.329,157.061,250.329z"/>
</g>
<g id="path9">
	<path fill="#A4CF8F" d="M216.46,275.831c-26.87,0-51.21-9.541-68.536-26.867c-17.326-17.325-26.867-41.666-26.867-68.536V70.024
		c0-4.552,3.69-8.242,8.242-8.242c4.552,0,8.242,3.69,8.242,8.242v110.404c0,46.466,32.453,78.918,78.919,78.918
		c64.297,0,129.736-51.41,235.445-152.663c3.287-3.146,8.506-3.036,11.653,0.251c3.148,3.287,3.036,8.505-0.251,11.654
		C354.427,222.877,286.354,275.831,216.46,275.831z"/>
</g>
<g id="line12">
	<path fill="#A4CF8F" d="M371.415,582.831c-2.11,0-4.22-0.805-5.829-2.413L151.233,366.066c-3.219-3.22-3.219-8.438,0-11.656
		c3.219-3.218,8.438-3.218,11.656,0l214.353,214.352c3.219,3.218,3.219,8.437,0,11.656
		C375.633,582.026,373.523,582.831,371.415,582.831z"/>
</g>
<g id="path15">
	<path fill="#A4CF8F" d="M68.609,600.911C28.854,600.911,0,572.057,0,532.302V421.896c0-19.382,5.451-37.756,15.762-53.133
		c10.31-15.375,25.263-27.432,43.242-34.864c33.241-14.064,68.291-9.081,95.685,13.117c16.597-13.296,38.064-20.522,61.449-20.522
		c33.95,0,68.85,12.806,109.832,40.298C360.891,390.219,401.674,425,462.339,483.09c3.286,3.149,3.4,8.366,0.252,11.654
		c-3.148,3.286-8.364,3.399-11.653,0.252c-59.941-57.398-100.062-91.646-134.151-114.517
		c-38.141-25.586-70.122-37.502-100.648-37.502c-20.057,0-37.505,6.048-50.856,16.657c0.169,2.305-0.628,4.668-2.392,6.432
		c-1.863,1.863-4.396,2.646-6.827,2.353c-11.963,13.654-18.844,32.079-18.844,53.477v110.406
		C137.219,572.057,108.364,600.911,68.609,600.911z M96.577,342.588c-10.337,0-20.878,2.145-31.213,6.519
		c-30.631,12.664-48.88,39.864-48.88,72.789v110.406c0,30.69,21.435,52.124,52.125,52.124c30.691,0,52.126-21.434,52.126-52.124
		V421.896c0-24.253,7.772-46.444,22.029-63.277C129.01,348.043,113.053,342.588,96.577,342.588z"/>
</g>
<g id="path18">
	<path fill="#A4CF8F" d="M414.6,600.994c-0.246,0-0.492-0.001-0.74-0.004c-18.41-0.19-35.581-7.526-48.353-20.652
		c-3.174-3.263-3.104-8.482,0.159-11.656c3.264-3.172,8.482-3.101,11.654,0.161c20.039,20.594,53.187,20.955,73.894,0.809
		c20.58-20.024,20.955-53.146,0.844-73.854l-0.935-0.937c-3.214-3.226-3.204-8.443,0.021-11.656
		c3.225-3.212,8.441-3.205,11.656,0.019l0.958,0.96c0.026,0.026,0.053,0.053,0.077,0.081c26.487,27.221,25.981,70.826-1.125,97.201
		C449.75,594.075,432.688,600.994,414.6,600.994z"/>
</g>
<g id="path21">
	<path fill="#A4CF8F" d="M457.283,120.877c-2.108,0-4.219-0.805-5.828-2.414c-3.22-3.219-3.22-8.438,0-11.656
		c20.372-20.372,20.372-53.519,0-73.891c-9.841-9.841-22.962-15.261-36.946-15.261c-13.982,0-27.104,5.42-36.944,15.261
		c-3.22,3.218-8.438,3.218-11.657,0c-3.218-3.218-3.218-8.438,0-11.656c26.801-26.799,70.405-26.799,97.205,0
		c26.798,26.799,26.798,70.404,0,97.203C461.503,120.073,459.392,120.877,457.283,120.877z"/>
</g>
<g id="path24">
	<path fill="#A4CF8F" d="M98.92,275.929c-1.167,0-2.317-0.033-3.451-0.099c-52.487-0.14-95.146-42.884-95.146-95.402V70.024
		c0-37.832,30.778-68.609,68.609-68.609c37.831,0,68.609,30.778,68.609,68.609c0,4.552-3.69,8.242-8.242,8.242
		c-4.552,0-8.242-3.69-8.242-8.242c0-28.742-23.383-52.125-52.125-52.125S16.807,41.282,16.807,70.024v110.404
		c0,43.516,35.403,78.918,78.919,78.918c0.175,0,0.348,0.006,0.522,0.017c17.773,1.126,42.954-9.298,54.991-22.77
		c3.033-3.394,8.243-3.686,11.637-0.653c3.394,3.033,3.687,8.243,0.653,11.637C148.908,263.941,121.23,275.929,98.92,275.929z"/>
</g>
</svg>
