<?xml version="1.0" encoding="utf-8"?>
<!-- Generator: Adobe Illustrator 19.2.1, SVG Export Plug-In . SVG Version: 6.00 Build 0)  -->
<svg version="1.1" id="Calque_1" xmlns="http://www.w3.org/2000/svg" xmlns:xlink="http://www.w3.org/1999/xlink" x="0px" y="0px"
	 viewBox="0 0 595.3 841.9" style="enable-background:new 0 0 595.3 841.9;" xml:space="preserve">
<style type="text/css">
	.st0{fill:#BBBBBB;}
</style>
<g>
	<path class="st0" d="M201.8,450.1c0-2.3,0-4.1,0-5.9c0-22,0.1-44-0.1-66c-0.1-5,1.2-6.7,6.4-6.6c14.7,0.3,29.3,0.1,44,0.1
		c2,0,4,0,6.5,0c0.1-2.8,0.4-5.2,0.4-7.6c-0.4-22.7,0.5-45.3,5.9-67.5c5-20.4,12.6-39.7,26.4-55.9c13.8-16,32.3-23.5,52.3-28.2
		c23.5-5.5,47.4-6.1,71.5-5.1c3.5,0.1,7,0.2,10.5,0.2c3.1-0.1,4.6,1.3,4.6,4.4c-0.2,24.5-0.3,49-0.5,73.5c0,0.3-0.2,0.6-0.6,1.6
		c-5-0.3-10.2-1-15.5-0.7c-11.9,0.6-24,0.5-35.7,2.7c-19.6,3.8-30.3,16.9-31.7,36.9c-0.9,13.9-1.3,27.9-1.8,41.9c0,1,0.1,2,0.2,3.5
		c2.1,0.1,4,0.3,5.9,0.3c24.3,0,48.7,0.2,73-0.1c5.2-0.1,6.5,1.7,6.4,6.6c-0.2,22.2-0.2,44.3,0,66.5c0,4.5-1.3,6-5.9,6
		c-23.8-0.2-47.7-0.1-71.5-0.1c-9.9,0-8.1-0.3-8.1,7.9c0,65.8,0,131.6,0,197.5c0,7.1,0,7.1-7,7.1c-23.7,0-47.3,0-71,0
		c-7.4,0-7.4,0-7.4-7.2c0-66,0-132,0-198c0-7.3,0-7.3-7.4-7.3c-14.3,0-28.7,0-43,0C206.4,450.6,204.3,450.3,201.8,450.1z"/>
</g>
</svg>
