<?xml version="1.0" encoding="utf-8"?>
<!-- Generator: Adobe Illustrator 19.2.1, SVG Export Plug-In . SVG Version: 6.00 Build 0)  -->
<svg version="1.1" id="Calque_1" xmlns="http://www.w3.org/2000/svg" xmlns:xlink="http://www.w3.org/1999/xlink" x="0px" y="0px"
	 viewBox="0 0 595.3 841.9" style="enable-background:new 0 0 595.3 841.9;" xml:space="preserve">
<style type="text/css">
	.st0{fill:#AEAEAE;}
</style>
<g>
	<path class="st0" d="M-1,421.3c0-34.3-0.4-68.7,0.1-103c0.4-26.1,1.8-52.3,9.4-77.7c18.2-60.5,58.6-97.2,119.7-111.8
		c25-5.9,50.5-6.8,76-7c65-0.3,130-0.3,194.9,0.1c25.8,0.2,51.7,1.5,76.8,8.6c62,17.3,100.1,57.6,115.2,119.9
		c5.1,21,6.6,42.5,6.7,64c0.4,71.5,0.4,142.9-0.1,214.4c-0.2,27-2.4,54-11.3,79.9c-18.6,54.3-55.8,88.7-111.3,103.4
		c-19.1,5-38.6,7.3-58.3,7.6c-52.5,0.7-104.9,1.5-157.4,1.6c-28.6,0.1-57.3-0.7-85.9-1.9c-27.1-1.1-53.7-5.5-78.7-16.9
		c-39.4-18-66.7-47.3-81.7-87.9C4.4,591.3,0.8,567,0.1,542.2c-1.1-40.3-1.8-80.6-2.7-120.9C-2,421.3-1.5,421.3-1,421.3z
		 M293.6,175.2c0,0.2,0,0.4,0,0.6c-19.2,0-38.3-0.5-57.5,0.1c-28.5,0.9-57.1,1.1-85.3,4.4c-49.7,5.9-82.2,37-92,85.9
		c-2.7,13.2-4.1,26.8-4.3,40.2c-0.9,62.8-1.3,125.6-1.4,188.4c0,26.8-0.2,53.7,4.9,80.2c3.7,19.4,10.8,37.3,23.9,52.6
		c17.5,20.4,40.1,31.8,66.1,34.9c26.1,3.1,52.4,4.4,78.7,4.8c41.1,0.8,82.3,0.6,123.5,0.1c27.8-0.3,55.6-1.3,83.4-2.9
		c22-1.3,43.2-7,61.7-19.5c24.6-16.6,38.6-40.4,43.3-69.2c3-18.3,4.7-37.1,4.8-55.7c0.2-73.6,0-147.3-1-220.9
		c-0.2-14.8-2.9-29.9-6.8-44.3c-8.7-32.2-29-54.9-60.3-67.3c-19.4-7.7-39.7-10-60.3-10.5C374.5,176.3,334,175.9,293.6,175.2z"/>
	<path class="st0" d="M298.1,575.8c-85.5-0.2-154.1-69.6-154-155.6c0.1-84.6,70.1-153.5,155.5-153.1c84.6,0.3,153.8,70,153.4,154.7
		C452.7,507.4,383.7,575.9,298.1,575.8z M298.7,521.1c55.7-0.2,99.6-44.6,99.4-100.5c-0.2-54.7-44.7-98.8-99.7-98.7
		c-55.5,0.1-99.6,44.8-99.4,100.6C199.3,477.2,243.8,521.3,298.7,521.1z"/>
	<path class="st0" d="M495,261.3c0,19.9-16.4,36.4-36.1,36.3c-20.1-0.1-36.2-16.2-36.3-36.2c0-20.2,16-36.6,35.8-36.5
		C478.8,225,495,241.1,495,261.3z"/>
</g>
</svg>
