<?xml version="1.0" encoding="utf-8"?>
<!-- Generator: Adobe Illustrator 19.2.1, SVG Export Plug-In . SVG Version: 6.00 Build 0)  -->
<svg version="1.1" id="Calque_1" xmlns="http://www.w3.org/2000/svg" xmlns:xlink="http://www.w3.org/1999/xlink" x="0px" y="0px"
	 viewBox="0 0 595.3 841.9" style="enable-background:new 0 0 595.3 841.9;" xml:space="preserve">
<style type="text/css">
	.st0{fill:#BBBBBB;}
</style>
<g>
	<path class="st0" d="M238.2,424.2c0-2.1,0-4.2,0-6.2c0.1-0.4,0.2-0.8,0.2-1.2c0.5-8,2.5-15.7,6.3-22.8
		c9.6-18.1,24.5-28.9,44.8-32.2c1.8-0.3,3.7-0.5,5.6-0.7c2.1,0,4.2,0,6.2,0c0.2,0.1,0.4,0.2,0.7,0.2c3.2,0.5,6.5,0.7,9.6,1.4
		c31.9,7.4,51.8,38.5,45.3,70.5c-8.1,39.8-53.3,60.2-88.5,39.9c-16.7-9.6-26.5-24.2-29.5-43.3C238.7,428,238.5,426.1,238.2,424.2z
		 M288.2,455.8c15.8,5.2,37-2,44.3-22.3c7.2-20-3.9-41.2-23.9-46.9c-21.2-6-41,7.1-45.3,26.9c-4.5,20.3,8.8,36.3,20.7,40.6
		c0.2-2.2,0.1-4.6,0.6-6.8c1.4-6.7,3.1-13.4,4.6-20.1c0.1-0.5,0.1-1.1-0.1-1.6c-0.8-2.4-1.1-4.7-0.7-7.2c0.5-2.6,1.5-4.9,3.9-6.3
		c3.6-2.1,7.4,0,7.5,4.1c0,0.8,0,1.5-0.2,2.3c-0.9,3.4-1.9,6.8-2.8,10.3c-0.2,0.9-0.4,2-0.3,2.9c0.5,3.4,3.9,5.4,7.5,4.6
		c3.2-0.8,5.2-3,6.7-5.7c2.6-4.9,3.5-10.2,2.9-15.7c-0.4-3.9-2.4-7-5.7-9.1c-2.6-1.7-5.5-2.3-8.6-2.4c-8.5-0.3-15.6,4.6-17.8,12.5
		c-1,3.8-1.3,7.7,1.1,11.1c1,1.4,1.4,2.7,0.7,4.3c-0.1,0.3-0.2,0.6-0.2,0.9c-0.4,1.5-0.9,1.8-2.3,1.1c-3-1.4-4.9-3.9-5.8-7
		c-2.6-8.7-0.3-16.3,6.3-22.3c7.5-6.8,16.5-8.1,26-5.4c6.8,1.9,11.6,6.4,14,13.2c1.4,3.9,1.2,7.9,0.6,12c-0.9,5.6-3,10.6-7.4,14.5
		c-3.8,3.4-8.4,4.9-13.5,4.2c-2.8-0.4-5.1-1.8-6.9-4.2C292.7,444.3,292,450.6,288.2,455.8z"/>
</g>
</svg>
