<?xml version="1.0" encoding="utf-8"?>
<!-- Generator: Adobe Illustrator 19.2.1, SVG Export Plug-In . SVG Version: 6.00 Build 0)  -->
<svg version="1.1" id="Calque_1" xmlns="http://www.w3.org/2000/svg" xmlns:xlink="http://www.w3.org/1999/xlink" x="0px" y="0px"
	 viewBox="0 0 595.3 841.9" style="enable-background:new 0 0 595.3 841.9;" xml:space="preserve">
<style type="text/css">
	.st0{fill:#BABABA;}
</style>
<g>
	<path class="st0" d="M348,310.1c1.5,0,3,0,4.6,0c0.4,0.1,0.8,0.3,1.2,0.4c1,0.1,2,0,3,0.2c1.1,0.1,2.3,0.4,3.4,0.6
		c2.2,0.4,4.3,0.9,6.5,1.4c0,0,0.1,0,0.1,0c1.5,0.6,3,1.1,4.5,1.7c2.2,0.9,4.3,1.9,6.5,2.9c0.7,0.4,1.3,1.1,2.1,1.4
		c2.7,0.9,4.3,3.3,6.5,4.7c1,0.6,1.8,1.5,2.6,2.3c0.6,0.6,1.3,1.2,1.9,1.7c0.3,0.2,0.8,0.5,1.1,0.5c2.1-0.4,4.2-0.9,6.3-1.5
		c1.7-0.4,3.3-0.8,5-1.3c2.2-0.7,4.4-1.5,6.5-2.3c2.4-0.9,4.9-1.9,7.2-2.9c2.2-0.9,4.3-2,6.5-3c0.2-0.1,0.4-0.3,0.7-0.5
		c0.8-0.5,1.7-1.1,2.5-1.7c-0.4,1.3-0.8,2.5-1.2,3.7c-0.3,0.7-0.7,1.4-1.1,2.1c-1.2,2.2-2.3,4.4-3.6,6.6c-0.8,1.3-1.9,2.5-2.8,3.7
		c-1.4,1.8-2.8,3.6-4.3,5.2c-1.8,1.8-3.6,3.5-5.6,5.1c-1.5,1.2-3.2,2.1-4.9,3.2c-0.3,0.2-0.6,0.6-0.9,0.9c0.1,0.1,0.2,0.2,0.3,0.3
		c0.5-0.1,1.1-0.2,1.6-0.3c4.1-0.8,8.2-1.5,12.3-2.4c2.9-0.7,5.7-1.6,8.6-2.5c0.9-0.2,1.8-0.3,2.7-0.6c1.5-0.6,2.9-1.4,4.4-2
		c0.3-0.1,0.7-0.1,1-0.1c-0.1,0.4-0.1,0.8-0.3,1c-0.8,1-1.6,2-2.4,3.1c-0.8,1-1.5,2.1-2.4,3.1c-1.1,1.3-2.2,2.6-3.4,3.9
		c-0.7,0.8-1.5,1.5-2.2,2.3c-0.2,0.3-0.5,0.5-0.7,0.8c-0.4,0.5-0.7,1.1-1.1,1.5c-1.3,1.3-3,2.2-4,3.8c-0.3,0.5-1,0.7-1.5,1.1
		c-0.9,0.7-1.7,1.6-2.6,2.3c-1.6,1.3-3.3,2.5-5,3.7c-0.8,0.6-1.1,1.3-1,2.3c0.5,7.2,0.1,14.4-0.7,21.6c-0.5,4.4-1.4,8.8-2.1,13.2
		c-0.5,2.7-0.9,5.5-1.6,8.1c-0.8,3.1-1.8,6.2-2.7,9.2c-0.7,2.4-1.4,4.8-2.1,7.1c-0.4,1.3-1,2.6-1.6,4c-1.3,3.1-2.7,6.2-4.1,9.3
		c-0.1,0.3-0.2,0.6-0.3,0.9c-0.3,0.7-0.5,1.5-0.9,2.2c-0.5,0.9-1.1,1.8-1.7,2.7c-1.2,1.8-0.9,4.3-2.8,5.7c-0.1,0.1-0.1,0.2-0.1,0.3
		c-0.8,1.6-1.7,3.1-2.5,4.7c-0.4,0.7-0.8,1.3-1.1,2c-0.5,0.9-1.1,1.9-1.6,2.7c-1.6,2.3-3.2,4.6-4.8,6.9c-0.5,0.7-1.1,1.3-1.6,2
		c-1,1.4-2,2.9-3.1,4.2c-2.1,2.5-4.2,4.9-6.3,7.4c-1.3,1.5-2.6,3.2-4,4.6c-2.3,2.4-4.7,4.6-7,6.9c-0.1,0.1-0.3,0.3-0.5,0.4
		c-1,0.7-1.9,1.5-2.9,2.2c-1.3,1.1-2.5,2.2-3.9,3.3c-2,1.6-3.9,3.2-6,4.7c-1.2,0.9-2.5,1.5-3.7,2.3c-1,0.7-1.9,1.4-2.9,2.1
		c-0.3,0.2-0.6,0.5-0.9,0.7c-1.2,0.7-2.4,1.3-3.6,2c-2.7,1.6-5.4,3.4-8.3,4.8c-3.8,1.9-7.8,3.4-11.7,5.1c-2,0.9-4,1.8-6,2.6
		c-2.4,0.9-5,1.6-7.5,2.3c-2,0.6-4,1.3-6.1,1.9c-2,0.5-4.1,0.9-6.2,1.3c-3.9,0.8-7.7,1.6-11.6,2.2c-2.8,0.5-5.7,0.6-8.6,0.9
		c-2.8,0.3-5.6,0.7-8.3,0.8c-6,0.1-11.9,0.1-17.9-0.2c-5.9-0.4-11.8-1.2-17.6-2c-3.1-0.4-6.1-1.3-9.2-2.1c-1.2-0.3-2.4-0.7-3.6-1
		c-2.3-0.6-4.5-1.1-6.8-1.6c-0.5-0.1-0.9-0.4-1.3-0.6c-0.8-0.4-1.7-0.8-2.5-1.1c-1.3-0.4-2.7-0.7-4.1-1.2c-2.4-0.8-4.7-1.6-7-2.6
		c-2-0.8-4-1.7-5.9-2.7c-3.3-1.7-6.6-3.5-9.9-5.3c-1.8-1-3.6-2-5.4-3c-0.3-0.2-0.6-0.2-0.9-0.3c0.1-0.2,0.3-0.3,0.4-0.5
		c0.1,0,0.3-0.1,0.4-0.1c2.2,0.1,4.4,0.3,6.6,0.4c6,0.1,11.9,0.1,17.8-0.7c3.6-0.5,7.2-0.9,10.7-1.6c2.7-0.5,5.3-1.4,7.9-2.2
		c2.1-0.6,4.2-1.2,6.3-1.9c2.4-0.8,4.7-1.9,7.1-2.8c0.9-0.4,1.9-0.6,2.7-1.1c2-1.1,4-2.3,6-3.5c0.1-0.1,0.2-0.1,0.3-0.2
		c1.3-0.7,2.7-1.4,4-2.1c0.9-0.5,1.8-1,2.6-1.6c1.6-1.1,3.1-2.3,4.7-3.4c1-0.7,2-1.3,3-2c0.3-0.2,0.4-0.7,0.8-1.3
		c-8.1-0.2-15.5-2-22.5-5.1c-7.1-3.2-13.2-8-18.2-13.7c-5-5.6-9-12.1-11.3-19.6c2.2,0.3,4.3,0.6,6.4,0.7c2.1,0.1,4.2,0.2,6.4,0.1
		c2.1-0.1,4.2-0.4,6.3-0.7c3.8-0.5,5.5-1,5.8-1.6c-8.4-1.9-16-5.4-22.9-10.7c-6.9-5.3-12.1-11.8-16-19.5c-4-7.8-5.9-16-5.9-24.6
		c1.9,0.8,3.5,1.6,5.2,2.3c1.8,0.7,3.6,1.3,5.4,1.9c0.9,0.3,1.8,0.8,2.7,0.9c2.5,0.4,5.1,0.8,7.7,1.1c1.3,0.2,2.6,0.2,4.3,0.3
		c-0.4-0.5-0.5-0.7-0.7-0.9c-1.5-1.2-3-2.4-4.4-3.6c-1-0.9-1.9-2-2.9-2.9c-1.1-1.1-2.3-2.2-3.4-3.4c-0.8-0.9-1.4-1.9-2.1-2.9
		c-1.2-1.7-2.5-3.3-3.7-5.1c-0.4-0.6-0.5-1.4-0.8-2.1c-0.8-1.5-1.8-2.9-2.4-4.5c-1.1-3.1-2.1-6.2-2.9-9.4c-0.6-2.3-0.8-4.7-1.1-7
		c-0.7-5.4-0.2-10.8,0.9-16.1c0.4-2.2,1.4-4.4,2.1-6.5c0.6-1.9,1.2-3.8,1.9-5.6c0.4-1.1,1-2.1,1.5-3.1c0.6-1,1-1,1.8-0.1
		c0.8,0.8,1.6,1.6,2.3,2.5c1.4,1.7,2.8,3.4,4.4,4.9c3.1,2.9,5.8,6.1,9,8.8c1.3,1.1,2.6,2.4,4,3.5c2.3,1.8,4.6,3.6,6.9,5.4
		c2,1.6,4,3.3,6.1,4.8c1.2,0.9,2.6,1.5,3.9,2.3c1.2,0.7,2.3,1.6,3.4,2.3c1.6,1,3.3,1.8,5,2.8c1.5,0.9,3,1.8,4.5,2.8
		c0.1,0.1,0.3,0.1,0.5,0.2c1,0.5,1.9,1,2.9,1.4c0.2,0.1,0.5,0.3,0.7,0.4c1.5,0.6,3,1,4.5,1.7c2.5,1.1,4.9,2.4,7.5,3.2
		c2.8,0.8,5.4,2.2,8.3,2.8c2.3,0.5,4.6,1.4,6.9,2c4.3,1.1,8.5,2.4,12.9,3c3.8,0.5,7.6,1.2,11.4,1.7c2.7,0.3,5.5,0.5,8.2,0.7
		c1.5,0.1,1.7-0.3,1.2-1.7c-0.1-0.4-0.3-0.8-0.3-1.2c-0.2-2.4-0.5-4.7-0.6-7.1c-0.1-2.3-0.2-4.5-0.1-6.8c0.1-2.2,0.3-4.4,0.8-6.5
		c0.6-2.9,1.4-5.7,2.3-8.5c0.4-1.4,1.1-2.8,1.8-4.1c1.2-2.4,2.4-4.8,3.8-7.1c0.8-1.3,1.8-2.4,2.8-3.6c1.4-1.8,2.8-3.6,4.3-5.3
		c1-1.1,2.3-2,3.4-3c1.4-1.2,2.8-2.5,4.3-3.6c1.6-1.1,3.5-2,5.1-3.1c3.1-2.2,6.8-2.9,10.1-4.5c0.6-0.3,1.2-0.3,1.9-0.4
		c3-0.6,6-1.2,9-1.8C345.6,310.6,346.8,310.4,348,310.1z"/>
</g>
</svg>
