<?xml version="1.0" encoding="utf-8"?>
<!-- Generator: Adobe Illustrator 19.2.1, SVG Export Plug-In . SVG Version: 6.00 Build 0)  -->
<svg version="1.1" id="Calque_1" xmlns="http://www.w3.org/2000/svg" xmlns:xlink="http://www.w3.org/1999/xlink" x="0px" y="0px"
	 viewBox="0 0 595.3 841.9" style="enable-background:new 0 0 595.3 841.9;" xml:space="preserve">
<style type="text/css">
	.st0{fill:#FFFFFF;}
</style>
<g>
	<g>
		<path class="st0" d="M24,720.9c0-199,0-398,0-597c183.3,0,366.7,0,550,0c0,199,0,398,0,597C390.7,720.9,207.3,720.9,24,720.9z
			 M319.5,304.7c-0.1,0.3-0.2,0.6-0.2,0.9c-6.4,0.5-13,0.2-19.2,1.5c-17.5,3.8-34.3,9.8-48.9,20.3c-7.3,5.3-13.9,11.6-20.7,17.5
			c-11.1,9.7-18.5,22.1-24,35.5c-5.8,14-8,28.8-7.6,44.2c0.4,15.7,4.8,29.9,12.1,43.4c8,14.8,19.1,27.2,32.4,37.5
			c15.1,11.7,32.3,19.4,51,23.2c5.8,1.2,12.2-0.3,17.7,1.4c10.7,3.4,21.1,0.4,31.3-0.9c12.2-1.6,24-5.7,34.2-13.3
			c8.5-6.3,18.1-11.6,25.4-19.1c7.4-7.6,12.6-17.4,18.7-26.2c6-8.7,8.9-18.9,11.1-28.9c2.8-12.7,3.9-25.8,1.2-38.8
			c-2-9.5-3.6-19.3-7.2-28.2c-5.3-13-13.9-24.1-23.6-34.2c-15.4-15.8-33.9-26.5-55.7-30.9C338.2,307.8,328.8,306.3,319.5,304.7z
			 M388.7,689.7c0.7-0.1,1.5-0.2,2.2-0.3c0-3.9,0.5-7.8-0.1-11.6c-2-12.2-4.5-24.4-6.8-36.5c-3.3-17.8-6.6-35.6-10-53.3
			c-2.9-14.9-5.9-29.7-9-44.5c-0.3-1.3-1.7-3.4-2.5-3.3c-9.4,0.5-18.7,1.2-28,2.2c-2.4,0.3-4.2,2.1-3.2,5.1c0.9,2.6,1.8,5.2,2.8,7.8
			c7.6,19.2,15.3,38.4,23,57.6c4.9,12.1,10,24,14.9,36.1c2.9,7.2,5.4,14.5,8.3,21.6C382.9,676.9,385.9,683.3,388.7,689.7z
			 M33.7,505.4c5.9-1.1,11.2-1.9,16.4-3c10.5-2.1,21.1-4.2,31.5-6.5c15.6-3.4,31.1-7,46.6-10.6c2.7-0.6,5.2-1.8,7.9-2.3
			c9.6-1.9,19.2-3.5,28.8-5.5c8.1-1.7,16.2-3.5,24.2-5.8c2.2-0.6,5.1-2.6,5.6-4.6c2-7.9-2-14.5-4.9-21.4c-6.6,2.6-12.4,5.1-18.3,7.1
			c-11.8,4-23.7,7.6-35.4,11.7c-16.1,5.6-31.9,11.7-48,17.3c-12.6,4.3-25.3,8.5-38.1,12C43,495.8,38,499.4,33.7,505.4z M167.8,648.7
			c0.6,0.2,1.3,0.4,1.9,0.5c6.9-7.4,14.2-14.6,20.7-22.4c11.6-13.8,22.8-27.9,34.1-42c11-13.6,22.1-27.2,33-41
			c5-6.4,4.1-10.4-3.1-14.3c-4.7-2.5-9.6-4.7-14.3-7.3c-2.7-1.5-4.4-1.1-5.8,1.6c-2.4,4.8-4.9,9.5-7.5,14.2
			c-7.1,13-14.4,25.9-21.5,38.9c-12.5,22.7-24.9,45.4-37.2,68.2C167.6,646.3,167.9,647.6,167.8,648.7z M273.5,305.7
			c6.8-2.7,12.6-5,18.4-7.4c0.6-0.3,1.1-1.7,0.9-2.6c-0.6-3.5-1.1-7.1-2.2-10.5c-5.3-17.2-10.7-34.4-16.3-51.5
			c-4.1-12.5-8.4-24.9-12.6-37.4c-3.2-9.5-6.4-19-9.9-28.5c-0.5-1.3-2.7-1.9-4.1-2.9c-0.4,1.4-1.2,2.8-1.1,4.1
			c0.6,4.8,1.5,9.5,2.3,14.2c1.8,11.4,3.4,22.9,5.4,34.3c2.1,12.2,4.5,24.4,6.6,36.6c2.7,15.7,5.3,31.5,8.2,47.2
			C269.5,303,272,304.3,273.5,305.7z M559.2,377.3c-0.2-0.7-0.4-1.3-0.6-2c-6.5,0-13-0.5-19.5,0.1c-12.2,1.2-24.4,3-36.6,4.5
			c-9.3,1.1-18.6,1.9-27.8,3.2c-9.8,1.4-19.6,3.5-29.4,4.6c-4.1,0.5-4.9,2.3-4.1,5.5c1.4,5.7,3.2,11.2,4.9,16.8
			c1,3.5,3.2,4.5,6.8,3.5c17.8-5,35.8-9.6,53.5-14.9c12.6-3.8,24.9-8.4,37.2-13.1C549,383.4,554,380.1,559.2,377.3z M528.5,593.9
			c0.4-0.4,0.8-0.7,1.2-1.1c-0.5-0.9-0.7-2.1-1.4-2.8c-7.6-8.1-15.3-16.1-22.8-24.3c-13-14.1-25.6-28.5-38.7-42.5
			c-11.6-12.4-23.6-24.3-35.3-36.5c-2.1-2.2-4-1.8-5.4-0.2c-3.9,4.4-7.6,9-11.1,13.7c-2,2.7-0.9,5,1.7,7
			c11.1,8.6,22.1,17.4,33.2,26.1c13.3,10.4,26.6,20.6,39.9,31c8.3,6.5,16.4,13.1,24.7,19.5C519.1,587.4,523.8,590.6,528.5,593.9z
			 M61.9,294.8c-0.4,0.8-0.8,1.5-1.3,2.3c2.8,2.3,5.4,4.9,8.5,6.8C92,318.1,115,332.2,138,346.4c15.6,9.6,31.3,19.2,46.9,29
			c3.2,2,5.9,1.8,7.4-1.4c2.6-5.5,4.6-11.2,6.6-17c0.2-0.7-1.6-2.5-2.8-3.1c-10.3-4.6-20.7-8.9-30.9-13.5
			c-7.4-3.4-14.5-7.4-21.9-10.8c-13.2-6.1-26.6-12-39.8-18c-10.8-4.9-21.6-9.9-32.5-14.7C68.1,295.7,64.9,295.5,61.9,294.8z
			 M387.8,312.7c3.9,3.1,7.5,5.8,10.9,8.6c6.3,5.2,9.9,4.6,13.8-2.3c4.9-8.6,9.9-17.2,14.7-25.8c7.3-13.2,14.5-26.4,21.5-39.7
			c5-9.4,9.8-18.9,14.6-28.5c2.4-4.8,4.7-9.6,7-14.5c-0.6-0.4-1.2-0.7-1.8-1.1C439.6,242.3,412.5,276.7,387.8,312.7z M446,615.4
			c0.3-0.5,0.7-0.9,1-1.4c-5.8-14-11.6-28.1-17.6-42.1c-5.7-13.2-11.5-26.3-17.6-39.2c-2.2-4.7-4.5-9.8-8.3-12.9
			c-1.8-1.5-7.1,1.3-10.9,2.1c-0.3,0.1-0.8-0.1-1,0.1c-2.9,2.1-6,4-8.7,6.4c-0.7,0.6-0.5,3.1,0.2,4.2c2.7,4.4,5.7,8.7,8.8,12.9
			c9.3,12.8,18.7,25.5,28.2,38.2c7.3,9.8,14.8,19.5,22.3,29.2C443.3,613.9,444.8,614.5,446,615.4z M198.3,482.1
			c-23.3,25.8-46,50.8-69.5,76.7c2.3-0.3,3.4-0.1,4.1-0.5c17.5-10.7,35-21.5,52.4-32.3c7.7-4.8,15.3-9.9,22.9-14.9
			c6.6-4.4,7.5-10.5,2.2-16.3C206.6,490.6,202.6,486.6,198.3,482.1z M73.2,399.3c0.1,0.6,0.2,1.2,0.2,1.8c5.1,0.9,10.2,1.7,15.2,2.8
			c6.3,1.5,12.5,3.5,18.8,4.9c10.7,2.2,21.5,3.9,32.2,6.1c11.8,2.4,23.4,5.3,35.2,7.8c2.5,0.5,5.9,1.3,6.3-3.2
			c0.5-5,1.6-9.9,1.7-14.9c0.3-8.7,0.1-8.9-8.4-8.6c-14.4,0.5-28.7,1.4-43,1.9c-8.3,0.3-16.7,0.1-25,0.1c-9.2,0-18.4-0.1-27.6,0.1
			C77,398,75.1,398.9,73.2,399.3z M440.5,453.1c-1.1,5.3,1.1,7.7,6.3,8.1c2.9,0.3,5.8,0.8,8.7,1.4c7.7,1.4,15.4,2.8,23.1,4.2
			c13.1,2.4,26.2,5,39.3,7.3c1.8,0.3,3.9-1,5.9-1.6c-1-1.6-1.7-3.9-3.2-4.6c-9.2-4.2-18.6-8-27.9-12c-14.4-6.2-28.8-12.4-42.9-19
			c-3.4-1.6-4.8-0.3-5.6,2.2C442.6,443.7,441.7,448.4,440.5,453.1z M283,632.6c0.5,0.2,1,0.4,1.6,0.7c0.8-1.4,2-2.7,2.4-4.2
			c2.5-8.9,5-17.8,7.3-26.8c4-15.7,8-31.4,11.4-47.3c0.8-3.6,2.7-9-3.1-11.2c-5.3-2.1-10.6-4-16-5.7c-2.6-0.8-7.6,3.6-7.4,6.3
			c0.6,6.4,1.5,12.7,1.7,19.1c0.8,21.1,1.4,42.2,2,63.2C283.1,628.7,283,630.7,283,632.6z M353.7,207c-0.5-0.1-1-0.1-1.5-0.2
			c-0.8,1.9-1.8,3.7-2.2,5.6c-3.4,15-6.8,30.1-10,45.2c-2.2,10.5-4.1,21.1-6,31.6c-0.5,2.7,0.3,5.2,3.4,5.6
			c4.9,0.6,9.9,0.3,14.7,1.2c4.4,0.9,5-0.9,4.9-4.5c-0.2-6.2,0.1-12.4-0.1-18.5c-0.6-20.5-1.3-41-2-61.5
			C354.9,210,354.2,208.5,353.7,207z M500.4,307c-2.7,1.3-5.3,2.6-8,4c-10.8,5.5-21.6,10.9-32.4,16.4c-11,5.5-22,11-33,16.6
			c-2.5,1.3-3.8,3-2.6,6c1.7,4.2,3.1,8.6,4.9,12.7c0.7,1.5,2.4,2.5,3.8,3.8c12.1-10.1,23.5-19.8,35.1-29.2
			C479.7,327.9,491.8,319.4,500.4,307z M165.8,251.6c-0.4,0.4-0.9,0.9-1.3,1.3c19.6,24.5,42.8,45.8,63.4,70.3
			c5.3-4.6,10.4-8.9,15.5-13.3c2.7-2.3,2.1-4.1-0.9-6.1c-11.9-8-23.6-16.3-35.4-24.4C193.4,270.1,179.6,260.9,165.8,251.6z"/>
		<path d="M319.5,304.7c9.3,1.6,18.7,3.1,27.9,5c21.8,4.4,40.3,15.1,55.7,30.9c9.7,10,18.3,21.2,23.6,34.2
			c3.6,8.9,5.3,18.7,7.2,28.2c2.7,13,1.6,26.1-1.2,38.8c-2.2,10-5.1,20.1-11.1,28.9c-6.1,8.8-11.3,18.6-18.7,26.2
			c-7.3,7.5-16.9,12.8-25.4,19.1c-10.2,7.6-22.1,11.7-34.2,13.3c-10.2,1.3-20.6,4.3-31.3,0.9c-5.5-1.7-11.9-0.3-17.7-1.4
			c-18.7-3.8-35.9-11.5-51-23.2c-13.3-10.3-24.4-22.6-32.4-37.5c-7.3-13.5-11.7-27.7-12.1-43.4c-0.4-15.4,1.8-30.2,7.6-44.2
			c5.6-13.3,12.9-25.8,24-35.5c6.8-5.9,13.4-12.3,20.7-17.5c14.6-10.6,31.4-16.6,48.9-20.3c6.2-1.3,12.8-1.1,19.2-1.5
			C319.3,305.3,319.4,305,319.5,304.7z M319.5,309.8c-8,1.4-16.1,2.7-24.1,4.1c-13.3,2.4-24.9,8.4-35.4,16.6
			c-9.2,7.2-17.7,15.3-26.3,23.2c-3.2,3-6.5,6.3-8.6,10.1c-6.7,11.7-13.8,23.3-16.4,36.8c-1.6,8-3.4,16.1-3.4,24.2
			c0,6.9,1.5,14,3.9,20.5c3.5,9.3,7.2,19,13.1,26.8c7.2,9.6,16.1,18.1,25.4,25.7c7.5,6.1,16.2,11.1,25.1,15
			c10.8,4.6,22.1,8.5,33.6,10.7c10,1.9,20.6,1.8,30.8,1.1c8.3-0.6,17.1-2.2,24.6-5.6c9.7-4.4,18.6-10.6,27.3-16.9
			c12.7-9.2,21.4-22.1,27.8-36.2c3.5-7.8,6.2-16.1,8.1-24.4c2.2-9.5,4.7-19.3,4.5-28.8c-0.4-16.2-5.2-31.5-13-46.1
			c-8.8-16.4-21.4-28.9-36.6-38.4C361.8,316.7,341.7,310.2,319.5,309.8z"/>
		<path d="M388.7,689.7c-2.8-6.4-5.8-12.8-8.4-19.4c-2.9-7.2-5.5-14.5-8.3-21.6c-4.9-12.1-10-24-14.9-36.1
			c-7.7-19.2-15.4-38.4-23-57.6c-1-2.6-2-5.2-2.8-7.8c-1-2.9,0.7-4.8,3.2-5.1c9.3-1,18.7-1.7,28-2.2c0.8,0,2.3,2,2.5,3.3
			c3.1,14.8,6.2,29.6,9,44.5c3.4,17.8,6.7,35.5,10,53.3c2.3,12.2,4.8,24.3,6.8,36.5c0.6,3.8,0.1,7.7,0.1,11.6
			C390.2,689.5,389.4,689.6,388.7,689.7z M381.7,662.9c0.6-0.2,1.1-0.3,1.7-0.5c-0.8-3.1-1.7-6.2-2.3-9.3
			c-2.8-14.2-5.4-28.5-8.3-42.6c-4.2-20.5-8.4-41.1-12.9-61.6c-0.3-1.5-2.3-3.6-3.6-3.8c-3.3-0.3-6.7,0-9.9,0.8
			c-7.2,1.6-7.4,2-5.3,8.5c4.4,13.2,8.7,26.5,13.6,39.6c6.9,18.6,14.3,36.9,21.6,55.4C377.9,653.8,379.8,658.3,381.7,662.9z"/>
		<path d="M33.7,505.4c4.3-6,9.4-9.6,16.2-11.5c12.8-3.6,25.5-7.7,38.1-12c16.1-5.5,32-11.7,48-17.3c11.7-4.1,23.7-7.7,35.4-11.7
			c6-2,11.8-4.5,18.3-7.1c2.9,6.9,7,13.5,4.9,21.4c-0.5,1.9-3.4,3.9-5.6,4.6c-8,2.2-16.1,4.1-24.2,5.8c-9.6,2-19.2,3.6-28.8,5.5
			c-2.7,0.5-5.2,1.7-7.9,2.3c-15.5,3.6-31.1,7.1-46.6,10.6c-10.5,2.3-21,4.4-31.5,6.5C44.8,503.4,39.6,504.3,33.7,505.4z
			 M82.5,490.7c12.4-2.9,23.8-5.4,35.1-8.1c12.9-3.1,25.7-6.6,38.6-9.8c11-2.7,22.1-5.2,33.1-8c1-0.3,2.7-2.1,2.5-2.8
			c-0.9-3.1-2.3-6-3.8-8.8c-0.4-0.8-2.2-1.3-3.2-1.1c-3.1,0.8-6.2,1.9-9.2,3c-14.8,5.3-29.6,10.5-44.4,15.8
			c-15.6,5.7-31.2,11.5-46.8,17.3C83.7,488.5,83.4,489.4,82.5,490.7z"/>
		<path d="M167.8,648.7c0.1-1.1-0.2-2.5,0.3-3.4c12.4-22.8,24.8-45.5,37.2-68.2c7.1-13,14.4-25.9,21.5-38.9c2.6-4.7,5-9.4,7.5-14.2
			c1.4-2.8,3-3.1,5.8-1.6c4.7,2.6,9.6,4.7,14.3,7.3c7.2,3.9,8.1,7.9,3.1,14.3c-10.9,13.7-22,27.3-33,41c-11.3,14-22.5,28.2-34.1,42
			c-6.5,7.8-13.8,14.9-20.7,22.4C169.1,649.1,168.4,648.9,167.8,648.7z M192.2,613.3c0.5,0.4,1,0.8,1.6,1.2
			c20.6-26.5,41.1-53.1,62-80c-3.9-2.4-6.7-4.4-9.7-5.9c-6.9-3.6-8.9-3.5-11.3,1.1c-5,9.5-10,19.1-14.7,28.8
			c-4.2,8.5-7.9,17.3-12.2,25.7C202.8,594.1,197.4,603.6,192.2,613.3z"/>
		<path d="M273.5,305.7c-1.5-1.5-4-2.7-4.3-4.3c-2.9-15.7-5.5-31.5-8.2-47.2c-2.1-12.2-4.5-24.4-6.6-36.6
			c-1.9-11.4-3.6-22.9-5.4-34.3c-0.7-4.7-1.7-9.4-2.3-14.2c-0.2-1.3,0.7-2.7,1.1-4.1c1.4,0.9,3.6,1.6,4.1,2.9
			c3.5,9.4,6.7,19,9.9,28.5c4.2,12.5,8.6,24.9,12.6,37.4c5.6,17.1,10.9,34.3,16.3,51.5c1.1,3.4,1.6,7,2.2,10.5
			c0.1,0.8-0.3,2.3-0.9,2.6C286.1,300.8,280.2,303,273.5,305.7z M257.7,199.9c-0.4,0.1-0.8,0.2-1.2,0.3c0.7,4.6,1.2,9.2,2,13.8
			c2.1,11.7,4.2,23.4,6.4,35.1c2.9,15.4,5.8,30.7,8.7,46.1c0.5,2.8,0.8,5.6,4.7,4.5c3.6-1.1,8.8-1.3,7.5-7
			c-2.6-11.7-5.6-23.4-9-34.9c-3.6-12.3-7.9-24.4-11.9-36.6C262.6,214.1,260.1,207,257.7,199.9z"/>
		<path d="M559.2,377.3c-5.2,2.8-10.2,6.1-15.6,8.2c-12.3,4.7-24.6,9.3-37.2,13.1c-17.7,5.3-35.6,9.9-53.5,14.9
			c-3.6,1-5.8,0-6.8-3.5c-1.7-5.6-3.5-11.2-4.9-16.8c-0.8-3.2,0-5,4.1-5.5c9.9-1.1,19.6-3.2,29.4-4.6c9.2-1.3,18.5-2.1,27.8-3.2
			c12.2-1.5,24.3-3.3,36.6-4.5c6.4-0.6,13-0.1,19.5-0.1C558.8,376,559,376.6,559.2,377.3z M530.6,383.4c-0.3-0.3-0.5-0.6-0.8-1
			c-4.7,0.2-9.5,0.2-14.2,0.7c-9.6,1.1-19.1,2.6-28.6,3.7c-12.2,1.5-24.4,2.7-36.5,4.2c-1.2,0.2-2.7,1.4-3.3,2.6
			c-2.5,4.5,0.4,8.2,2.7,11.6c2.2,3.2,5.2,1.6,7.9,0.4c1.6-0.7,3.4-1.2,5.1-1.6c9.9-2.8,19.9-5.4,29.8-8.4
			c7.2-2.2,14.3-4.9,21.5-7.2C519.7,386.5,525.2,385,530.6,383.4z"/>
		<path d="M528.5,593.9c-4.7-3.4-9.5-6.6-14-10.1c-8.3-6.4-16.4-13.1-24.7-19.5c-13.3-10.4-26.6-20.6-39.9-31
			c-11.1-8.7-22.1-17.5-33.2-26.1c-2.6-2-3.7-4.3-1.7-7c3.5-4.7,7.2-9.3,11.1-13.7c1.4-1.6,3.3-2,5.4,0.2
			c11.7,12.3,23.7,24.2,35.3,36.5c13.1,14,25.8,28.4,38.7,42.5c7.5,8.2,15.3,16.1,22.8,24.3c0.7,0.7,0.9,1.8,1.4,2.8
			C529.3,593.2,528.9,593.6,528.5,593.9z M419.2,499.8c26.8,22.7,52.7,44.7,78.6,66.7c0.4-0.4,0.8-0.8,1.2-1.2
			c-5.3-5.9-10.4-11.9-15.8-17.7c-6.1-6.6-12.4-12.9-18.4-19.5c-10.5-11.4-20.9-22.9-31.5-34.2c-0.9-1-3.7-1.4-4.9-0.7
			C425.2,494.7,422.5,497.2,419.2,499.8z"/>
		<path d="M61.9,294.8c3,0.7,6.2,0.9,9,2.1c10.9,4.7,21.7,9.8,32.5,14.7c13.3,6,26.6,11.8,39.8,18c7.4,3.4,14.5,7.4,21.9,10.8
			c10.2,4.7,20.7,8.9,30.9,13.5c1.2,0.5,3,2.4,2.8,3.1c-1.9,5.8-4,11.5-6.6,17c-1.5,3.1-4.2,3.4-7.4,1.4
			c-15.6-9.8-31.2-19.4-46.9-29c-23-14.2-46-28.3-68.9-42.5c-3.1-1.9-5.7-4.5-8.5-6.8C61,296.3,61.5,295.6,61.9,294.8z M93.9,311.1
			c-0.4,0.8-0.8,1.6-1.2,2.4c32.2,19.5,63.2,40.9,96.4,59.4c1.9-5.9,3.4-10.5,5.3-16.4C160.9,341.3,127.4,326.2,93.9,311.1z"/>
		<path d="M387.8,312.7c24.7-36,51.8-70.4,80.8-103.3c0.6,0.4,1.2,0.7,1.8,1.1c-2.3,4.8-4.6,9.7-7,14.5c-4.8,9.5-9.6,19-14.6,28.5
			c-7.1,13.3-14.3,26.5-21.5,39.7c-4.8,8.7-9.9,17.2-14.7,25.8c-3.9,6.9-7.5,7.5-13.8,2.3C395.2,318.5,391.7,315.8,387.8,312.7z
			 M446.2,244.7c-0.4-0.2-0.8-0.3-1.2-0.5c-3.1,4.2-6.2,8.4-9.4,12.5c-12.9,16.7-25.9,33.4-38.6,50.2c-3.6,4.8-2,9.6,4,11.5
			c2.9,1,6.2,2,8.4-2.3c3.1-6,7.1-11.6,10.2-17.6c6.9-13.6,13.6-27.4,20.3-41.1C442.1,253.1,444.2,248.9,446.2,244.7z"/>
		<path d="M446,615.4c-1.2-0.8-2.7-1.5-3.6-2.6c-7.5-9.7-14.9-19.4-22.3-29.2c-9.5-12.7-18.8-25.4-28.2-38.2
			c-3.1-4.2-6-8.5-8.8-12.9c-0.7-1.1-0.9-3.5-0.2-4.2c2.6-2.4,5.7-4.3,8.7-6.4c0.2-0.2,0.7,0,1-0.1c3.7-0.8,9-3.6,10.9-2.1
			c3.8,3.1,6.1,8.3,8.3,12.9c6.1,13,11.9,26.1,17.6,39.2c6,14,11.7,28,17.6,42.1C446.7,614.4,446.4,614.9,446,615.4z M429.6,590.1
			c0.3-0.2,0.6-0.3,0.9-0.5c-0.5-1.6-0.9-3.2-1.6-4.8c-8.4-18.5-16.7-37-25.3-55.3c-0.9-2-3.8-4.5-5.5-4.3c-3.7,0.4-7.2,2.3-10.6,4
			c-0.4,0.2-0.1,3.2,0.6,4.3c10.2,14.3,20.6,28.6,30.9,42.8C422.5,581,426.1,585.5,429.6,590.1z"/>
		<path d="M198.3,482.1c4.3,4.5,8.3,8.5,12.1,12.7c5.3,5.8,4.4,12-2.2,16.3c-7.6,5-15.2,10.1-22.9,14.9
			c-17.4,10.9-34.9,21.6-52.4,32.3c-0.7,0.4-1.8,0.3-4.1,0.5C152.3,532.9,175,507.9,198.3,482.1z M146,544c0.3,0.3,0.5,0.6,0.8,0.9
			c6.7-4.2,13.6-8.1,20.1-12.6c13.5-9.5,26.7-19.2,40-29c1.3-1,3.2-3.6,2.8-4.1c-1.8-2.6-3.9-5.2-6.5-6.9c-0.9-0.6-4,1-5.4,2.3
			c-15,14.2-29.9,28.5-44.9,42.7C150.7,539.6,148.4,541.8,146,544z"/>
		<path d="M73.2,399.3c1.9-0.5,3.8-1.3,5.7-1.4c9.2-0.1,18.4-0.1,27.6-0.1c8.3,0,16.7,0.2,25-0.1c14.4-0.5,28.7-1.4,43-1.9
			c8.5-0.3,8.7,0,8.4,8.6c-0.2,5-1.2,9.9-1.7,14.9c-0.4,4.5-3.8,3.8-6.3,3.2c-11.8-2.4-23.4-5.4-35.2-7.8
			c-10.7-2.2-21.5-3.9-32.2-6.1c-6.3-1.3-12.5-3.4-18.8-4.9c-5-1.2-10.2-1.9-15.2-2.8C73.4,400.5,73.3,399.9,73.2,399.3z
			 M105.3,401.9c0,0.5-0.1,0.9-0.1,1.4c2.4,0.5,4.9,1.1,7.3,1.6c20.9,4.2,41.8,8.4,62.7,12.5c1.1,0.2,3.5-1,3.5-1.6
			c0-4.4,0-8.9-0.9-13.2c-0.3-1.5-3.2-3.5-4.8-3.4c-12.1,0.7-24.2,2-36.3,2.7c-8.8,0.5-17.7,0.1-26.5,0.1
			C108.5,401.9,106.9,401.9,105.3,401.9z"/>
		<path d="M440.5,453.1c1.2-4.7,2.1-9.5,3.6-14.1c0.8-2.5,2.1-3.8,5.6-2.2c14.2,6.6,28.6,12.8,42.9,19c9.3,4,18.7,7.8,27.9,12
			c1.5,0.7,2.1,3,3.2,4.6c-2,0.6-4.1,1.9-5.9,1.6c-13.1-2.2-26.2-4.8-39.3-7.3c-7.7-1.4-15.4-2.8-23.1-4.2c-2.9-0.5-5.8-1.1-8.7-1.4
			C441.6,460.8,439.4,458.5,440.5,453.1z M498.1,465.4c0.2-0.6,0.4-1.2,0.6-1.7c-6.6-3.2-13.2-6.6-19.9-9.7c-6.8-3-14-5.2-20.6-8.6
			c-8.8-4.7-8.5-5.1-12.8,3.7c-0.2,0.4-0.3,1-0.6,1.4c-1.7,2.5-0.2,3.1,2,3.5c10.2,2.2,20.3,4.4,30.5,6.7
			C484.2,462.1,491.2,463.8,498.1,465.4z"/>
		<path d="M283,632.6c0-2,0.1-3.9,0-5.9c-0.7-21.1-1.2-42.2-2-63.2c-0.2-6.4-1.1-12.7-1.7-19.1c-0.2-2.7,4.7-7.1,7.4-6.3
			c5.4,1.7,10.7,3.6,16,5.7c5.8,2.3,3.8,7.6,3.1,11.2c-3.4,15.8-7.5,31.6-11.4,47.3c-2.3,9-4.7,17.9-7.3,26.8
			c-0.4,1.5-1.6,2.8-2.4,4.2C284,633.1,283.5,632.9,283,632.6z M286.3,612.6c0.5,0.1,1.1,0.1,1.6,0.2c0.5-2.9,0.9-5.9,1.5-8.8
			c2.1-9.7,4.5-19.3,6.5-29c1.6-8,2.8-16.1,3.9-24.1c0.2-1.5-1.1-4.7-1.9-4.7c-4.6-0.2-8.4-5.7-13.3-2.1c-0.7,0.5-0.6,2.5-0.6,3.8
			c0.3,6.3,0.8,12.5,0.9,18.8c0.4,14.8,0.7,29.5,1,44.3C286,611.4,286.2,612,286.3,612.6z"/>
		<path d="M353.7,207c0.4,1.5,1.1,3,1.2,4.5c0.7,20.5,1.4,41,2,61.5c0.2,6.2-0.1,12.4,0.1,18.5c0.1,3.6-0.5,5.4-4.9,4.5
			c-4.8-0.9-9.9-0.6-14.7-1.2c-3.1-0.4-3.9-2.9-3.4-5.6c1.9-10.5,3.8-21.1,6-31.6c3.2-15.1,6.6-30.1,10-45.2
			c0.4-1.9,1.5-3.7,2.2-5.6C352.8,206.8,353.3,206.9,353.7,207z M352,234.5c-0.6-0.1-1.3-0.1-1.9-0.2c-0.3,0.7-0.9,1.3-1,2
			c-3.4,15.2-6.7,30.4-9.9,45.6c-0.6,2.9-1.6,7-0.1,8.8c1.4,1.8,5.7,2.2,8.5,1.7c2.3-0.4,5.4-1.4,5.2-5.7
			c-0.6-9.7-0.5-19.4-0.6-29.1C351.9,249.9,352,242.2,352,234.5z"/>
		<path d="M500.4,307c-8.6,12.4-20.7,20.9-32.2,30.2c-11.6,9.4-23,19.1-35.1,29.2c-1.4-1.3-3.1-2.3-3.8-3.8
			c-1.9-4.1-3.2-8.5-4.9-12.7c-1.2-3,0.1-4.7,2.6-6c11-5.5,22-11,33-16.6c10.8-5.4,21.6-10.9,32.4-16.4
			C495.1,309.6,497.8,308.3,500.4,307z M471.9,325.9c-0.2-0.3-0.4-0.6-0.6-1c-9.4,4.8-18.8,9.5-28.2,14.4c-4.6,2.4-9.2,4.7-13.4,7.7
			c-4.4,3.1-0.4,6.2,1,8.9c1.1,2.3,3.5,3,5.8,0.9C448.3,346.5,460.1,336.2,471.9,325.9z"/>
		<path d="M165.8,251.6c13.7,9.3,27.5,18.5,41.2,27.8c11.9,8.1,23.5,16.4,35.4,24.4c3,2,3.5,3.7,0.9,6.1c-5,4.4-10.2,8.8-15.5,13.3
			c-20.6-24.5-43.8-45.9-63.4-70.3C164.9,252.5,165.4,252.1,165.8,251.6z M186.5,270.2c-0.2,0.3-0.4,0.5-0.6,0.8
			c5.1,5.5,10.2,11.1,15.4,16.6c6.8,7.2,13.7,14.2,20.4,21.5c7.4,8.1,7.2,8,15.5,0.9c2.5-2.2,2.5-3.3-0.2-5.1
			c-11.2-7.9-22.3-16-33.6-23.8C197.8,277.2,192.1,273.8,186.5,270.2z"/>
		<path class="st0" d="M319.5,309.8c22.1,0.4,42.2,6.9,60.4,18.3c15.2,9.6,27.9,22,36.6,38.4c7.8,14.6,12.6,29.9,13,46.1
			c0.2,9.6-2.3,19.4-4.5,28.8c-2,8.3-4.6,16.6-8.1,24.4c-6.4,14.1-15,27-27.8,36.2c-8.7,6.3-17.6,12.5-27.3,16.9
			c-7.5,3.4-16.3,5-24.6,5.6c-10.2,0.7-20.8,0.8-30.8-1.1c-11.5-2.2-22.8-6.1-33.6-10.7c-8.9-3.8-17.6-8.8-25.1-15
			c-9.3-7.6-18.2-16.1-25.4-25.7c-5.9-7.8-9.6-17.5-13.1-26.8c-2.4-6.4-4-13.6-3.9-20.5c0-8.1,1.8-16.2,3.4-24.2
			c2.7-13.5,9.7-25.1,16.4-36.8c2.2-3.8,5.4-7.1,8.6-10.1c8.6-7.9,17.1-16,26.3-23.2c10.4-8.1,22.1-14.2,35.4-16.6
			C303.5,312.5,311.5,311.2,319.5,309.8z"/>
		<path class="st0" d="M381.7,662.9c-1.9-4.5-3.8-9.1-5.6-13.6c-7.2-18.4-14.6-36.8-21.6-55.4c-4.9-13.1-9.2-26.3-13.6-39.6
			c-2.1-6.4-1.8-6.8,5.3-8.5c3.2-0.7,6.7-1.1,9.9-0.8c1.4,0.1,3.3,2.2,3.6,3.8c4.4,20.5,8.7,41,12.9,61.6
			c2.9,14.2,5.5,28.4,8.3,42.6c0.6,3.1,1.5,6.2,2.3,9.3C382.8,662.6,382.2,662.7,381.7,662.9z"/>
		<path class="st0" d="M82.5,490.7c0.9-1.3,1.2-2.2,1.8-2.5c15.6-5.8,31.2-11.6,46.8-17.3c14.8-5.4,29.6-10.6,44.4-15.8
			c3.1-1.1,6.1-2.2,9.2-3c0.9-0.2,2.8,0.3,3.2,1.1c1.6,2.8,2.9,5.8,3.8,8.8c0.2,0.6-1.4,2.5-2.5,2.8c-11,2.8-22.1,5.3-33.1,8
			c-12.9,3.2-25.7,6.6-38.6,9.8C106.3,485.3,94.9,487.8,82.5,490.7z"/>
		<path class="st0" d="M192.2,613.3c5.2-9.7,10.6-19.3,15.6-29c4.3-8.5,8-17.2,12.2-25.7c4.8-9.7,9.7-19.3,14.7-28.8
			c2.4-4.6,4.5-4.8,11.3-1.1c3,1.6,5.8,3.5,9.7,5.9c-20.8,26.9-41.4,53.4-62,80C193.3,614.1,192.7,613.7,192.2,613.3z"/>
		<path class="st0" d="M257.7,199.9c2.4,7.1,4.9,14.2,7.2,21.3c4,12.2,8.3,24.3,11.9,36.6c3.4,11.5,6.4,23.2,9,34.9
			c1.3,5.6-4,5.9-7.5,7c-3.9,1.2-4.2-1.7-4.7-4.5c-2.8-15.4-5.8-30.7-8.7-46.1c-2.2-11.7-4.4-23.4-6.4-35.1c-0.8-4.6-1.4-9.2-2-13.8
			C256.9,200.1,257.3,200,257.7,199.9z"/>
		<path class="st0" d="M530.6,383.4c-5.5,1.6-10.9,3.1-16.4,4.9c-7.2,2.3-14.3,5.1-21.5,7.2c-9.9,3-19.9,5.6-29.8,8.4
			c-1.7,0.5-3.5,0.9-5.1,1.6c-2.8,1.2-5.8,2.8-7.9-0.4c-2.3-3.4-5.2-7-2.7-11.6c0.6-1.1,2.1-2.4,3.3-2.6c12.2-1.5,24.4-2.7,36.5-4.2
			c9.6-1.1,19.1-2.7,28.6-3.7c4.7-0.5,9.5-0.5,14.2-0.7C530.1,382.8,530.4,383.1,530.6,383.4z"/>
		<path class="st0" d="M419.2,499.8c3.4-2.6,6-5,9.1-6.8c1.2-0.7,4-0.3,4.9,0.7c10.6,11.3,21,22.8,31.5,34.2
			c6.1,6.6,12.4,12.9,18.4,19.5c5.4,5.8,10.5,11.8,15.8,17.7c-0.4,0.4-0.8,0.8-1.2,1.2C471.8,544.5,445.9,522.5,419.2,499.8z"/>
		<path class="st0" d="M93.9,311.1c33.5,15.1,67.1,30.2,100.6,45.3c-1.9,5.9-3.4,10.5-5.3,16.4c-33.2-18.5-64.2-39.8-96.4-59.4
			C93.1,312.7,93.5,311.9,93.9,311.1z"/>
		<path class="st0" d="M446.2,244.7c-2.1,4.2-4.1,8.5-6.2,12.7c-6.7,13.7-13.4,27.5-20.3,41.1c-3.1,6-7.1,11.6-10.2,17.6
			c-2.2,4.3-5.5,3.2-8.4,2.3c-6-1.9-7.7-6.7-4-11.5c12.8-16.8,25.8-33.4,38.6-50.2c3.2-4.1,6.3-8.3,9.4-12.5
			C445.5,244.3,445.9,244.5,446.2,244.7z"/>
		<path class="st0" d="M429.6,590.1c-3.5-4.6-7.1-9.2-10.5-13.8c-10.4-14.2-20.7-28.5-30.9-42.8c-0.8-1.1-1.1-4.1-0.6-4.3
			c3.4-1.7,6.9-3.6,10.6-4c1.7-0.2,4.6,2.3,5.5,4.3c8.6,18.4,16.9,36.9,25.3,55.3c0.7,1.5,1.1,3.2,1.6,4.8
			C430.3,589.8,429.9,589.9,429.6,590.1z"/>
		<path class="st0" d="M146,544c2.3-2.2,4.6-4.4,7-6.7c14.9-14.3,29.8-28.6,44.9-42.7c1.4-1.3,4.4-2.9,5.4-2.3
			c2.6,1.7,4.8,4.3,6.5,6.9c0.4,0.5-1.5,3.1-2.8,4.1c-13.3,9.8-26.5,19.5-40,29c-6.5,4.5-13.4,8.4-20.1,12.6
			C146.6,544.7,146.3,544.3,146,544z"/>
		<path class="st0" d="M105.3,401.9c1.6,0,3.2,0,4.8,0c8.8,0,17.7,0.4,26.5-0.1c12.1-0.6,24.2-2,36.3-2.7c1.6-0.1,4.5,2,4.8,3.4
			c0.9,4.3,0.9,8.8,0.9,13.2c0,0.6-2.4,1.8-3.5,1.6c-20.9-4.1-41.8-8.3-62.7-12.5c-2.4-0.5-4.9-1.1-7.3-1.6
			C105.2,402.8,105.2,402.4,105.3,401.9z"/>
		<path class="st0" d="M498.1,465.4c-7-1.6-13.9-3.3-20.9-4.8c-10.1-2.3-20.3-4.5-30.5-6.7c-2.1-0.5-3.6-1.1-2-3.5
			c0.3-0.4,0.3-0.9,0.6-1.4c4.2-8.8,4-8.3,12.8-3.7c6.5,3.5,13.8,5.6,20.6,8.6c6.7,3,13.3,6.4,19.9,9.7
			C498.5,464.2,498.3,464.8,498.1,465.4z"/>
		<path class="st0" d="M286.3,612.6c-0.1-0.6-0.3-1.2-0.3-1.8c-0.4-14.8-0.6-29.5-1-44.3c-0.2-6.3-0.7-12.5-0.9-18.8
			c-0.1-1.3-0.1-3.2,0.6-3.8c4.9-3.5,8.7,1.9,13.3,2.1c0.7,0,2.1,3.2,1.9,4.7c-1,8.1-2.3,16.1-3.9,24.1c-1.9,9.7-4.4,19.3-6.5,29
			c-0.6,2.9-1,5.9-1.5,8.8C287.4,612.8,286.9,612.7,286.3,612.6z"/>
		<path class="st0" d="M352,234.5c0,7.7-0.1,15.4,0,23.1c0.1,9.7,0,19.4,0.6,29.1c0.3,4.3-2.8,5.3-5.2,5.7c-2.8,0.5-7.1,0.1-8.5-1.7
			c-1.4-1.8-0.5-5.9,0.1-8.8c3.2-15.2,6.6-30.4,9.9-45.6c0.2-0.7,0.7-1.3,1-2C350.7,234.4,351.4,234.4,352,234.5z"/>
		<path class="st0" d="M471.9,325.9c-11.8,10.3-23.6,20.6-35.3,30.9c-2.3,2-4.7,1.4-5.8-0.9c-1.3-2.7-5.4-5.8-1-8.9
			c4.2-2.9,8.8-5.3,13.4-7.7c9.3-4.9,18.8-9.6,28.2-14.4C471.5,325.2,471.7,325.6,471.9,325.9z"/>
		<path class="st0" d="M186.5,270.2c5.6,3.6,11.4,7,16.9,10.8c11.3,7.8,22.3,16,33.6,23.8c2.7,1.9,2.7,3,0.2,5.1
			c-8.3,7.1-8.1,7.1-15.5-0.9c-6.7-7.3-13.6-14.3-20.4-21.5c-5.2-5.5-10.3-11.1-15.4-16.6C186,270.7,186.2,270.4,186.5,270.2z"/>
	</g>
</g>
</svg>
