<?xml version="1.0" encoding="UTF-8" standalone="no"?>
<!-- Created with Inkscape (http://www.inkscape.org/) -->

<svg
   xmlns:dc="http://purl.org/dc/elements/1.1/"
   xmlns:cc="http://creativecommons.org/ns#"
   xmlns:rdf="http://www.w3.org/1999/02/22-rdf-syntax-ns#"
   xmlns:svg="http://www.w3.org/2000/svg"
   xmlns="http://www.w3.org/2000/svg"
   xmlns:sodipodi="http://sodipodi.sourceforge.net/DTD/sodipodi-0.dtd"
   xmlns:inkscape="http://www.inkscape.org/namespaces/inkscape"
   width="64"
   height="64"
   id="svg4833"
   version="1.1"
   inkscape:version="0.91 r13725"
   viewBox="0 0 64 64"
   sodipodi:docname="all_day.svg">
  <defs
     id="defs4835" />
  <sodipodi:namedview
     id="base"
     pagecolor="#ffffff"
     bordercolor="#666666"
     borderopacity="1.0"
     inkscape:pageopacity="0.0"
     inkscape:pageshadow="2"
     inkscape:zoom="5.5"
     inkscape:cx="3.8181818"
     inkscape:cy="32"
     inkscape:current-layer="layer1"
     showgrid="true"
     inkscape:document-units="px"
     inkscape:grid-bbox="true"
     inkscape:window-width="1920"
     inkscape:window-height="1018"
     inkscape:window-x="1272"
     inkscape:window-y="162"
     inkscape:window-maximized="1" />
  <metadata
     id="metadata4838">
    <rdf:RDF>
      <cc:Work
         rdf:about="">
        <dc:format>image/svg+xml</dc:format>
        <dc:type
           rdf:resource="http://purl.org/dc/dcmitype/StillImage" />
        <dc:title></dc:title>
      </cc:Work>
    </rdf:RDF>
  </metadata>
  <g
     id="layer1"
     inkscape:label="Layer 1"
     inkscape:groupmode="layer">
    <g
       transform="matrix(0.45519515,0,0,0.45519515,-94.91089,-158.83361)"
       id="g3">
      <g
         id="g5">
        <path
           inkscape:connector-curvature="0"
           d="m 315.8,400 c 4.8,12.1 6,29 -1.3,40.2 -3.5,5.3 -7.6,10.7 -12.2,15.2 -5.2,5.1 -11.9,8.4 -18.1,12.1 -1.7,1 -0.2,3.6 1.5,2.6 6.7,-4 13.8,-7.6 19.3,-13.2 4.8,-4.9 9.4,-10.7 12.9,-16.5 3.6,-6 4.6,-12 4.4,-18.9 -0.2,-7.6 -0.8,-15.1 -3.6,-22.3 -0.7,-1.8 -3.6,-1 -2.9,0.8 l 0,0 z"
           id="path7" />
      </g>
    </g>
    <g
       transform="matrix(0.45519515,0,0,0.45519515,-94.91089,-158.83361)"
       id="g9">
      <g
         id="g11">
        <path
           inkscape:connector-curvature="0"
           d="m 287.2,371 c 6.2,3.5 12.7,7 17.9,11.9 5.1,4.8 7.8,11.1 10.9,17.2 0.9,1.7 3.5,0.2 2.6,-1.5 -3.2,-6.4 -6.1,-12.9 -11.4,-17.8 -5.4,-5.1 -12.1,-8.7 -18.5,-12.3 -1.7,-1 -3.2,1.6 -1.5,2.5 l 0,0 z"
           id="path13" />
      </g>
    </g>
    <g
       transform="matrix(0.45519515,0,0,0.45519515,-94.91089,-158.83361)"
       id="g15">
      <g
         id="g17">
        <path
           inkscape:connector-curvature="0"
           d="m 248.3,400.6 c 6.3,-13.1 17.3,-24 31.3,-28.6 15.9,-5.3 33.5,-1.8 46.2,9.1 12.4,10.7 20,25.6 19.3,42.2 -0.7,15.5 -9.1,29.9 -21.7,38.8 -1.6,1.1 -0.1,3.7 1.5,2.6 21.4,-15.1 29.2,-43.4 17.8,-67.2 -12,-24.8 -41.5,-37.9 -67.3,-27.1 -13.1,5.4 -23.5,16 -29.6,28.7 -0.9,1.7 1.7,3.2 2.5,1.5 l 0,0 z"
           id="path19" />
      </g>
    </g>
    <g
       transform="matrix(0.45519515,0,0,0.45519515,-94.91089,-158.83361)"
       id="g21">
      <g
         id="g23">
        <path
           inkscape:connector-curvature="0"
           d="m 246.5,398.5 c -4.1,10.9 -6.3,23 -3.1,34.4 3,10.7 11.1,21.5 19.6,28.5 18.3,15 43.9,14.3 63.5,2.5 1.7,-1 0.1,-3.6 -1.5,-2.6 -18.9,11.4 -43.9,12.1 -61.1,-3 -7.6,-6.6 -15,-16.3 -17.6,-26.2 -3,-10.9 -0.8,-22.4 3.1,-32.8 0.6,-1.8 -2.2,-2.6 -2.9,-0.8 l 0,0 z"
           id="path25" />
      </g>
    </g>
    <g
       transform="matrix(0.45519515,0,0,0.45519515,-94.91089,-158.83361)"
       id="g27">
      <g
         id="g29">
        <path
           inkscape:connector-curvature="0"
           d="m 253.1,451.9 c 6.1,7.3 11.3,14.6 21.1,16.7 1.9,0.4 2.7,-2.5 0.8,-2.9 -9.2,-1.9 -14.2,-9.1 -19.8,-15.9 -1.2,-1.5 -3.3,0.6 -2.1,2.1 l 0,0 z"
           id="path31" />
      </g>
    </g>
    <g
       transform="matrix(0.45519515,0,0,0.45519515,-94.91089,-158.83361)"
       id="g33">
      <g
         id="g35">
        <path
           inkscape:connector-curvature="0"
           d="m 243.4,411.4 c 0.6,0 0.6,-1 0,-1 -0.7,0 -0.7,1 0,1 l 0,0 z"
           id="path37" />
      </g>
    </g>
    <g
       transform="matrix(0.45519515,0,0,0.45519515,-94.91089,-158.83361)"
       id="g39">
      <g
         id="g41">
        <path
           inkscape:connector-curvature="0"
           d="m 254.4,358.9 c 2.5,2.5 4.9,4.9 6.7,7.9 1.6,2.5 3,5 5.2,7 2.3,2.2 5.9,-1.3 3.5,-3.5 -2.3,-2.2 -3.6,-5 -5.4,-7.6 -1.9,-2.7 -4.2,-5.1 -6.5,-7.4 -2.3,-2.2 -5.8,1.3 -3.5,3.6 l 0,0 z"
           id="path43" />
      </g>
    </g>
    <g
       transform="matrix(0.45519515,0,0,0.45519515,-94.91089,-158.83361)"
       id="g45">
      <g
         id="g47">
        <path
           inkscape:connector-curvature="0"
           d="m 248.1,371.2 c 3.6,2.9 7.1,5.9 10.3,9.2 1.4,1.4 3.5,-0.7 2.1,-2.1 -3.2,-3.3 -6.7,-6.4 -10.3,-9.2 -1.4,-1.2 -3.6,0.9 -2.1,2.1 l 0,0 z"
           id="path49" />
      </g>
    </g>
    <g
       transform="matrix(0.45519515,0,0,0.45519515,-94.91089,-158.83361)"
       id="g51">
      <g
         id="g53">
        <path
           inkscape:connector-curvature="0"
           d="m 224.9,374.2 c 7.4,6.3 14.8,12.6 22.2,18.8 2.4,2.1 6,-1.4 3.5,-3.5 -7.4,-6.3 -14.8,-12.6 -22.2,-18.8 -2.4,-2.1 -6,1.4 -3.5,3.5 l 0,0 z"
           id="path55" />
      </g>
    </g>
    <g
       transform="matrix(0.45519515,0,0,0.45519515,-94.91089,-158.83361)"
       id="g57">
      <g
         id="g59">
        <path
           inkscape:connector-curvature="0"
           d="m 245.1,400.2 c -6,-0.8 -11.4,-3.6 -17.2,-4.8 -1.9,-0.4 -2.7,2.5 -0.8,2.9 6.1,1.2 11.8,4.1 18,4.9 1.9,0.2 1.9,-2.8 0,-3 l 0,0 z"
           id="path61" />
      </g>
    </g>
    <g
       transform="matrix(0.45519515,0,0,0.45519515,-94.91089,-158.83361)"
       id="g63">
      <g
         id="g65">
        <path
           inkscape:connector-curvature="0"
           d="m 241.4,416.7 c -5.3,-0.7 -10.4,-2.9 -15.7,-3.7 -4.7,-0.8 -9.5,-1.1 -14.3,-1.1 -3.2,0 -3.2,5 0,5 5.6,0 11.1,0.4 16.6,1.6 4.5,1 8.8,2.6 13.4,3.3 3.2,0.4 3.1,-4.6 0,-5.1 l 0,0 z"
           id="path67" />
      </g>
    </g>
    <g
       transform="matrix(0.45519515,0,0,0.45519515,-94.91089,-158.83361)"
       id="g69">
      <g
         id="g71">
        <path
           inkscape:connector-curvature="0"
           d="m 240.9,428.6 c -4.5,2.2 -9,4.5 -13.5,6.7 -1.7,0.9 -0.2,3.5 1.5,2.6 4.5,-2.2 9,-4.5 13.5,-6.7 1.7,-0.9 0.2,-3.5 -1.5,-2.6 l 0,0 z"
           id="path73" />
      </g>
    </g>
    <g
       transform="matrix(0.45519515,0,0,0.45519515,-94.91089,-158.83361)"
       id="g75">
      <g
         id="g77">
        <path
           inkscape:connector-curvature="0"
           d="m 245.6,439.7 c -8.2,2.5 -14.1,8.9 -21.5,12.9 -2.8,1.5 -0.3,5.8 2.5,4.3 7,-3.8 12.6,-10.1 20.3,-12.4 3.1,-0.9 1.8,-5.8 -1.3,-4.8 l 0,0 z"
           id="path79" />
      </g>
    </g>
    <g
       transform="matrix(0.45519515,0,0,0.45519515,-94.91089,-158.83361)"
       id="g81">
      <g
         id="g83">
        <path
           inkscape:connector-curvature="0"
           d="m 254.7,455 c -3.1,1.9 -5.8,4.4 -7.8,7.5 -1.1,1.6 1.5,3.1 2.6,1.5 1.7,-2.6 4,-4.8 6.7,-6.4 1.6,-1 0.1,-3.5 -1.5,-2.6 l 0,0 z"
           id="path85" />
      </g>
    </g>
    <g
       transform="matrix(0.45519515,0,0,0.45519515,-94.91089,-158.83361)"
       id="g87">
      <g
         id="g89">
        <path
           inkscape:connector-curvature="0"
           d="m 268.8,464.2 c -4.1,4.9 -7.9,10 -11.4,15.4 -1.8,2.7 2.5,5.2 4.3,2.5 3.3,-5 6.8,-9.8 10.6,-14.4 2.1,-2.4 -1.4,-5.9 -3.5,-3.5 l 0,0 z"
           id="path91" />
      </g>
    </g>
    <g
       transform="matrix(0.45519515,0,0,0.45519515,-94.91089,-158.83361)"
       id="g93">
      <g
         id="g95">
        <path
           inkscape:connector-curvature="0"
           d="m 331.7,430.3 c 2.3,0.6 4.1,0.6 6.4,0.1 1.7,-0.4 2.6,-3 1.1,-4.2 -3.1,-2.4 -9.1,-5.4 -12.1,-1 -2.6,3.7 1.5,7.9 5.2,8.4 4.3,0.6 7.8,-3.7 5.7,-7.7 -1.9,-3.6 -7,-4.5 -9.7,-1.4 -2.6,2.9 -1.9,8.3 2,9.7 4.4,1.6 7.4,-3.1 6.1,-7 -1.3,-4.1 -6,-7.5 -9.8,-4.3 -3.2,2.6 -3.5,8.5 -0.2,10.9 0.7,0.5 1.8,0.4 2.5,0 3.5,-2.2 3.2,-9.1 -0.5,-11.2 -5.4,-3 -7.7,5.5 -7.9,9.1 -0.1,2.4 3.6,3.5 4.7,1.3 1.1,-2.4 1.7,-4.6 1.7,-7.2 0,-2.4 -3.5,-3.5 -4.7,-1.3 -1.7,3.2 -4.3,10.7 1,12.1 5.2,1.4 8.5,-5.6 9.2,-9.6 -1.6,-0.4 -3.2,-0.9 -4.8,-1.3 -0.5,3.3 -1.1,11.3 4.7,10.1 5.4,-1.1 6.9,-10.2 7.2,-14.4 0.2,-3.2 -4.8,-3.2 -5,0 -0.3,4.7 -1.9,12.7 2,16.2 1.5,1.4 3.5,0.6 4.2,-1.1 1.6,-4 2.2,-7.9 1.6,-12.1 -0.3,-2.4 -3.2,-3.5 -4.7,-1.3 -1.9,3 -2.4,5.9 -1.7,9.4 0.4,2 2.9,2.2 4.2,1.1 2.3,-2 3.3,-4.3 3.5,-7.3 -1.7,0 -3.3,0 -5,0 -0.1,1.9 0.2,3.5 0.7,5.4 0.6,2 3.6,2.6 4.6,0.6 1.5,-2.9 2.1,-5.6 1.8,-8.8 -0.2,-2.6 -4.4,-3.6 -4.9,-0.7 -0.1,0.8 -0.3,1.6 -0.4,2.4 -0.5,3.1 4.1,4.5 4.8,1.3 0.6,-2.7 0.8,-5.2 0.5,-8 -0.2,-1.9 -2.7,-3.6 -4.3,-1.8 -1.2,1.4 -1.8,2.6 -1.8,4.6 0,3.3 4.6,3.1 5,0 0.2,-2.1 0.5,-4.2 0.7,-6.2 -1.7,0 -3.3,0 -5,0 -0.3,2.4 0.2,4.3 1.1,6.5 1,2.2 3.9,1.2 4.6,-0.6 1.2,-3.1 1.8,-11.1 -3.3,-11.1 -5.3,0.1 -5.2,9.8 -5.3,13.3 -0.2,3.2 4.8,3.2 5,0 0.3,-4.3 0,-8.4 -0.8,-12.6 -0.5,-2.7 -4,-2 -4.8,0 -2,4.9 -2.8,9.9 -2.4,15.1 0.2,2.7 4.2,3.6 4.9,0.7 1.2,-5.1 3.7,-14.4 -0.1,-18.7 -0.6,-0.7 -1.6,-0.8 -2.4,-0.6 -6.5,1.4 -7.5,12.9 -7.5,18.2 0,2.9 4.1,3.3 4.9,0.7 1.6,-5 2.2,-9.9 2,-15.1 -0.1,-2.4 -3.4,-3.5 -4.7,-1.3 -3,5.4 -4,11.1 -4.9,17.1 1.6,0.2 3.3,0.4 4.9,0.7 0.5,-4.7 0.7,-9.3 0.5,-14 -0.1,-2.5 -3.3,-3.4 -4.7,-1.3 -3,4.7 -4.6,9.5 -5.3,15 -0.3,2.4 3.7,3.5 4.7,1.3 1.5,-3.4 4.6,-9.7 2.2,-13.2 -0.7,-1 -1.6,-1.3 -2.8,-1.1 -4,0.6 -5.3,6.9 -5.8,10.2 1.6,0.2 3.3,0.4 4.9,0.7 0.1,-2.4 0.4,-4.7 0.7,-7.1 -1.6,-0.4 -3.2,-0.9 -4.8,-1.3 -0.2,1.7 -0.3,2.7 -0.3,4.4 1.7,0 3.3,0 5,0 -0.2,-6.8 -1.1,-13.5 -2.8,-20.2 -0.7,-2.7 -5,-2.2 -4.9,0.7 0.1,3.6 0.9,6.9 2.5,10.1 1.1,2.3 4.6,1.1 4.7,-1.3 0.2,-4.6 -0.3,-9.2 -1.2,-13.7 -1.6,0.4 -3.2,0.9 -4.8,1.3 2.7,6.4 5.5,12.6 8.6,18.8 1.3,2.6 5.1,0.7 4.6,-1.9 -1.3,-6.1 -3.2,-11.9 -5.7,-17.6 -1,-2.4 -4.6,-1 -4.7,1.3 -0.1,5.9 0.7,11.6 2.4,17.3 0.9,3.1 5.7,1.8 4.8,-1.3 -1,-3.7 -2.4,-7.2 -4.2,-10.6 -1.4,-2.7 -5.1,-0.7 -4.6,1.9 0.5,2.9 1.5,5.4 3.1,7.9 1.3,2 4.7,1.3 4.7,-1.3 -0.1,-7.8 -1.2,-15.4 -3.3,-22.9 -1.5,0.6 -3,1.3 -4.6,1.9 3.1,5.8 6.2,11.7 9.3,17.5 1.3,2.5 5.5,0.8 4.6,-1.9 -1.8,-5.5 -4,-10.8 -6.5,-16 -1.4,-2.9 -5.7,-0.4 -4.3,2.5 2.4,4.9 5.1,9.6 8.2,14 1.9,2.7 5.6,0.4 4.3,-2.5 -1.4,-3.2 -3,-6.2 -4.9,-9 -1.3,1 -2.6,2 -3.9,3 2.2,2.4 4.4,4.7 6.5,7.1 1.7,1.8 4.9,-0.1 4.2,-2.4 -1.1,-3.6 -2.5,-7 -4.2,-10.4 -1.4,0.8 -2.9,1.7 -4.3,2.5 2,3.3 4.3,6.4 6.9,9.3 1.9,2.2 5.3,-0.6 3.9,-3 -1,-1.8 -2,-3.5 -3,-5.3 -1.3,1 -2.6,2 -3.9,3 1.1,1.2 2.2,2.4 3.2,3.6 1.9,2.1 5.3,-0.6 3.9,-3 -0.5,-0.9 -1,-1.7 -1.5,-2.6 -1.4,0.8 -2.9,1.7 -4.3,2.5 2.4,3.6 4.2,7.3 5.7,11.3 1,3 5.8,1.7 4.8,-1.3 -0.7,-2.2 -1.6,-4.2 -2.8,-6.2 -1.1,-1.9 -4,-1.4 -4.6,0.6 -0.5,1.8 -0.6,2.2 -0.6,4 1.4,-0.6 2.8,-1.2 4.3,-1.8 -1.4,-1.8 -2.8,-3.6 -4.2,-5.4 -1.3,-1.7 -4.4,-0.3 -4.3,1.8 0.2,2.3 0.7,4.1 1.6,6.2 1.1,2.6 5.4,0.7 4.6,-1.9 -0.9,-2.7 -2,-5.3 -3.4,-7.8 -1.3,-2.4 -5.7,-0.7 -4.6,1.9 0.7,1.6 1.3,2.7 2.6,3.9 1.4,1.3 4.5,0.6 4.3,-1.8 -0.3,-3 -1,-5.5 -2.3,-8.2 -1.1,1.1 -2.3,2.3 -3.4,3.4 0.8,0.4 1.5,0.7 2.3,1.1 1.7,0.8 3.8,-0.1 3.8,-2.2 0,-2.8 -0.6,-5 -2.2,-7.4 -1.8,-2.6 -5.9,-0.3 -4.3,2.5 1.6,2.8 3.1,5.7 4.7,8.5 1.4,-0.8 2.9,-1.7 4.3,-2.5 -5.5,-7.6 -11.3,-15.2 -20.1,-19.1 -2.6,-1.2 -4.8,1.7 -3,3.9 3.8,4.7 7.6,9.4 11.3,14.1 1,-1.3 2,-2.6 3,-3.9 -3.9,-2.9 -7.5,-6.1 -11,-9.6 -1.7,-1.7 -5,0 -4.2,2.4 0.7,2.1 1.4,4.2 2.1,6.3 1.5,-0.6 3,-1.3 4.6,-1.9 -1.1,-1.6 -2.2,-3.2 -3.2,-4.8 -1.6,-2.4 -5.1,-0.9 -4.6,1.9 1,5.2 2.7,10.2 5.1,14.9 1.4,-0.8 2.9,-1.7 4.3,-2.5 -7.6,-13.1 -12.5,-32.9 -30.9,-33.6 -2.8,-0.1 -3.5,4.3 -0.7,4.9 4.8,1 8.2,4.7 11.5,8 3.4,3.3 6.5,6.7 9.5,10.2 1.5,1.7 4.2,0.3 4.3,-1.8 0.1,-3.2 -0.9,-5.7 -2.9,-8.2 -2,-2.5 -5.5,1 -3.5,3.5 1.2,1.4 1.7,2.9 1.4,4.6 1.4,-0.6 2.8,-1.2 4.3,-1.8 -5.9,-7 -13.8,-17.6 -23.3,-19.5 -0.2,1.6 -0.4,3.3 -0.7,4.9 15.7,0.6 20.1,20.1 26.6,31.1 1.6,2.8 5.7,0.3 4.3,-2.5 -2.2,-4.4 -3.6,-8.9 -4.6,-13.7 -1.5,0.6 -3,1.3 -4.6,1.9 1.1,1.6 2.2,3.2 3.2,4.8 1.5,2.2 5.5,0.9 4.6,-1.9 -0.7,-2.1 -1.4,-4.2 -2.1,-6.3 -1.4,0.8 -2.8,1.6 -4.2,2.4 3.8,3.7 7.8,7.1 12,10.3 2.4,1.8 4.6,-1.9 3,-3.9 -3.8,-4.7 -7.6,-9.4 -11.3,-14.1 -1,1.3 -2,2.6 -3,3.9 8.1,3.6 13.3,10.3 18.3,17.3 1.8,2.6 5.9,0.3 4.3,-2.5 -1.6,-2.8 -3.1,-5.7 -4.7,-8.5 -1.4,0.8 -2.9,1.7 -4.3,2.5 1.2,1.4 1.7,3 1.5,4.8 1.3,-0.7 2.5,-1.4 3.8,-2.2 -0.8,-0.4 -1.5,-0.7 -2.3,-1.1 -2.3,-1.1 -4.5,1.1 -3.4,3.4 0.9,1.8 1.4,3.7 1.6,5.7 1.4,-0.6 2.8,-1.2 4.3,-1.8 -0.4,-0.6 -0.9,-1.1 -1.3,-1.7 -1.5,0.6 -3,1.3 -4.6,1.9 1.2,2.1 2.1,4.3 2.9,6.6 1.5,-0.6 3,-1.3 4.6,-1.9 -0.3,-1.2 -0.6,-2.5 -0.9,-3.7 -1.4,0.6 -2.8,1.2 -4.3,1.8 1.4,1.8 2.8,3.6 4.2,5.4 1.4,1.8 4.3,0.2 4.3,-1.8 0.1,-0.9 0.3,-1.8 0.4,-2.7 -1.5,0.2 -3,0.4 -4.6,0.6 0.9,1.6 1.7,3.3 2.2,5 1.6,-0.4 3.2,-0.9 4.8,-1.3 -1.5,-4.5 -3.5,-8.6 -6.2,-12.5 -1.8,-2.7 -6,-0.3 -4.3,2.5 0.5,0.9 1,1.7 1.5,2.6 1.3,-1 2.6,-2 3.9,-3 -1.1,-1.2 -2.2,-2.4 -3.2,-3.6 -1.9,-2.2 -5.3,0.6 -3.9,3 1,1.8 2,3.5 3,5.3 1.3,-1 2.6,-2 3.9,-3 -2.3,-2.6 -4.3,-5.3 -6.1,-8.3 -1.7,-2.8 -5.8,-0.3 -4.3,2.5 1.5,3 2.8,6 3.7,9.2 1.4,-0.8 2.8,-1.6 4.2,-2.4 -2.2,-2.4 -4.4,-4.7 -6.5,-7.1 -1.9,-2.1 -5.5,0.6 -3.9,3 1.9,2.9 3.5,5.9 4.9,9 1.4,-0.8 2.9,-1.7 4.3,-2.5 -3.1,-4.5 -5.8,-9.1 -8.2,-14 -1.4,0.8 -2.9,1.7 -4.3,2.5 2.3,4.8 4.3,9.7 6,14.8 1.5,-0.6 3,-1.3 4.6,-1.9 -3.1,-5.8 -6.2,-11.7 -9.3,-17.5 -1.3,-2.5 -5.3,-0.8 -4.6,1.9 2,7.1 3,14.2 3.1,21.6 1.6,-0.4 3.1,-0.8 4.7,-1.3 -1.3,-2.2 -2.1,-4.2 -2.6,-6.7 -1.5,0.6 -3,1.3 -4.6,1.9 1.5,3 2.7,6.1 3.6,9.4 1.6,-0.4 3.2,-0.9 4.8,-1.3 -1.6,-5.3 -2.3,-10.5 -2.2,-16 -1.6,0.4 -3.1,0.8 -4.7,1.3 2.3,5.3 4,10.8 5.2,16.4 1.5,-0.6 3,-1.3 4.6,-1.9 -2.9,-5.8 -5.6,-11.6 -8.1,-17.6 -1.2,-2.9 -5.5,-1.9 -4.8,1.3 0.9,4.1 1.2,8.2 1,12.4 1.6,-0.4 3.1,-0.8 4.7,-1.3 -1.2,-2.5 -1.7,-4.8 -1.8,-7.6 -1.6,0.2 -3.3,0.4 -4.9,0.7 1.6,6.2 2.5,12.4 2.6,18.8 0.1,3.2 5,3.2 5,0 0.1,-1 0.1,-2.1 0.2,-3.1 0.4,-3.1 -4.3,-4.5 -4.8,-1.3 -0.4,2.8 -0.7,5.6 -0.9,8.4 -0.2,2.8 4.5,3.5 4.9,0.7 0.2,-1.3 0.7,-6.4 2.3,-6.7 -0.9,-0.4 -1.9,-0.8 -2.8,-1.1 0.9,1.3 -1.7,7 -2.2,8.2 1.6,0.4 3.1,0.8 4.7,1.3 0.5,-4.6 2.1,-8.6 4.6,-12.5 -1.6,-0.4 -3.1,-0.8 -4.7,-1.3 0.2,4.7 0,9.3 -0.5,14 -0.3,2.8 4.5,3.5 4.9,0.7 0.8,-5.5 1.6,-11 4.4,-15.9 -1.6,-0.4 -3.1,-0.8 -4.7,-1.3 0.2,4.8 -0.4,9.2 -1.9,13.8 1.6,0.2 3.3,0.4 4.9,0.7 0,-2.4 0.5,-12.7 3.9,-13.4 -0.8,-0.2 -1.6,-0.4 -2.4,-0.6 1.9,2.2 -0.6,11.6 -1.1,13.9 1.6,0.2 3.3,0.4 4.9,0.7 -0.4,-4.8 0.4,-9.3 2.2,-13.8 -1.6,0 -3.2,0 -4.8,0 0.7,3.8 0.8,7.5 0.6,11.3 1.7,0 3.3,0 5,0 0,-0.6 0.8,-8.3 0.7,-8.3 -0.7,-0.4 -1.4,-0.8 -2.2,-1.2 1.5,1.9 1,4 0.2,6 1.5,-0.2 3,-0.4 4.6,-0.6 -0.6,-1.3 -0.8,-2.6 -0.5,-3.9 0.4,-3.2 -4.6,-3.2 -5,0 -0.2,2.1 -0.5,4.2 -0.7,6.2 1.7,0 3.3,0 5,0 0.1,-0.3 0.2,-0.7 0.3,-1 -1.4,-0.6 -2.8,-1.2 -4.3,-1.8 0.3,2.4 0.2,4.2 -0.3,6.7 1.6,0.4 3.2,0.9 4.8,1.3 0.1,-0.8 0.3,-1.6 0.4,-2.4 -1.6,-0.2 -3.3,-0.4 -4.9,-0.7 0.2,2.3 -0.1,4.2 -1.2,6.3 1.5,0.2 3,0.4 4.6,0.6 -0.5,-1.3 -0.7,-2.7 -0.5,-4 0.1,-3.2 -4.8,-3.2 -5,0 0,1.6 -0.7,2.9 -2,3.8 1.4,0.4 2.8,0.7 4.2,1.1 -0.5,-2.1 -0.1,-4 1.2,-5.6 -1.6,-0.4 -3.1,-0.8 -4.7,-1.3 0.5,3.8 0.1,7.2 -1.4,10.8 1.4,-0.4 2.8,-0.7 4.2,-1.1 -2.1,-1.9 -0.7,-10.2 -0.5,-12.7 -1.7,0 -3.3,0 -5,0 -0.1,1.9 -0.4,3.7 -1.1,5.5 -0.6,1.6 -1.8,5.8 -1,0.1 0.4,-3.1 -4.2,-4.5 -4.8,-1.3 -0.3,1.8 -0.8,3.7 -1.9,5.1 -0.7,1.8 -0.9,1.8 -0.5,0 0,-1.4 0.5,-2.7 1.3,-3.8 -1.6,-0.4 -3.1,-0.8 -4.7,-1.3 0.1,1.7 -0.2,3.2 -1,4.7 1.6,0.4 3.1,0.8 4.7,1.3 -0.1,-1.2 0.2,-2.4 0.7,-3.4 0.7,-1.8 0.7,-1.4 0.1,1.2 0.8,0 1.7,0 2.5,0 0,-1.3 0.9,-1.7 2.5,-1.2 1.6,-0.5 3,0 4.3,1.4 0.4,-1.4 0.7,-2.8 1.1,-4.2 -1.2,0 -2.5,0 -3.7,-0.1 -3,-0.6 -4.3,4.2 -1.2,5.1 l 0,0 z"
           id="path97" />
      </g>
    </g>
    <g
       transform="matrix(0.45519515,0,0,0.45519515,-94.91089,-158.83361)"
       id="g99">
      <g
         id="g101">
        <path
           inkscape:connector-curvature="0"
           d="m 317.7,377.2 c -3.2,-3.6 -6.9,-6.1 -11.4,-7.8 -0.2,1.6 -0.4,3.3 -0.7,4.9 11.5,1.5 16.5,13.5 25.6,18.9 2.6,1.5 4.8,-1.8 3,-3.9 -2.4,-2.9 -4.6,-6.3 -7.9,-8.4 -3.1,-1.9 -6.6,-2.6 -10.2,-3.1 -1.8,-0.3 -3.6,1.1 -3.1,3.1 0.9,3.3 1.5,6.7 2,10.1 1.3,-0.7 2.5,-1.4 3.8,-2.2 -0.8,-1.2 -1.5,-2.4 -2.3,-3.6 -0.4,-3.2 -5.4,-3.2 -5,0 0.4,3.5 1.8,5.9 4.7,7.9 1.5,1 4,-0.3 3.8,-2.2 -0.5,-3.9 -1.2,-7.6 -2.1,-11.4 -1,1 -2.1,2.1 -3.1,3.1 3.2,0.5 6.6,1 9.3,2.9 2.6,1.9 4.5,4.8 6.6,7.3 1,-1.3 2,-2.6 3,-3.9 -5.2,-3.1 -8.5,-8.7 -13.3,-12.4 -4.5,-3.5 -9,-6.4 -14.8,-7.2 -3,-0.4 -3,4 -0.7,4.9 3.7,1.4 6.6,3.6 9.2,6.5 2.2,2.4 5.7,-1.1 3.6,-3.5 l 0,0 z"
           id="path103" />
      </g>
    </g>
    <g
       transform="matrix(0.45519515,0,0,0.45519515,-94.91089,-158.83361)"
       id="g105">
      <g
         id="g107">
        <path
           inkscape:connector-curvature="0"
           d="m 329,444.3 c -2.3,2 -4.6,3.9 -6.8,5.9 1.4,0.8 2.8,1.6 4.2,2.4 1.7,-4.1 3.6,-8.1 5.8,-12 1.2,-2.1 -1.2,-4.8 -3.4,-3.4 -3.8,2.3 -7.2,5 -10.4,8 1.3,1 2.6,2 3.9,3 2.5,-4.2 6.4,-8.7 6.9,-13.7 0.2,-1.7 -1.7,-2.8 -3.2,-2.4 -1.3,0.3 -2.1,0.1 -1.3,1.6 -0.8,-1.6 -3.5,-1.7 -4.3,0 -3.2,6.5 -6.4,12.9 -10.6,18.8 -1.6,2.2 1.4,4.5 3.4,3.4 10,-5.1 17.8,-14.5 22.4,-24.6 1.3,-2.9 -2.6,-5.3 -4.3,-2.5 -3.1,4.8 -5.2,10 -6.6,15.5 -0.5,1.9 1.8,4.2 3.7,2.8 5,-3.7 8.5,-8.5 11.9,-13.6 -1.5,-0.6 -3,-1.3 -4.6,-1.9 -1.3,3.3 -2.6,6.7 -3.9,10 -1.2,3 3.6,4.2 4.8,1.3 1.6,-3.8 4,-7 7,-9.8 -1.3,-1 -2.6,-2 -3.9,-3 -2.2,5.2 -4.9,10.1 -8,14.7 -1.6,2.4 1.9,4.9 3.9,3 3.8,-3.6 6.4,-7.7 8.2,-12.5 1.1,-3 -3.6,-4.3 -4.8,-1.3 -3.6,8.9 -11.3,22.3 -21.4,24.4 0.8,1.4 1.6,2.8 2.4,4.2 3.1,-2.9 5.6,-6.2 7.7,-9.8 1.5,-2.6 -1.8,-4.8 -3.9,-3 -2.4,2 -4.7,4 -7.1,6 1.4,0.8 2.8,1.6 4.2,2.4 0.7,-2 1.6,-3.4 3,-4.8 2,-2 -0.5,-5.4 -3,-3.9 -1.9,1.1 -3.6,2.2 -5.3,3.5 1.1,1.1 2.3,2.3 3.4,3.4 1.6,-2.4 3.2,-4.8 4.9,-7.3 1.6,-2.4 -1.9,-5 -3.9,-3 -3.9,3.9 -7.8,7.8 -11.5,11.8 -2.2,2.3 1.2,5.8 3.5,3.5 3.8,-3.7 8.7,-5.3 13.4,-7.5 4.9,-2.3 8.1,-6.2 12.6,-8.9 -1.2,-0.9 -2.4,-1.9 -3.7,-2.8 -0.2,1.1 -0.7,2.1 -1.4,2.9 1.4,0.8 2.9,1.7 4.3,2.5 2.6,-4.7 4.1,-9.5 4.6,-14.9 0.3,-3.2 -4.7,-3.2 -5,0 -0.5,4.4 -1.8,8.4 -3.9,12.3 -1.6,2.8 2.5,5.2 4.3,2.5 0.9,-1.3 1.5,-2.6 1.9,-4.1 0.6,-2.1 -1.8,-3.9 -3.7,-2.8 -5,3 -8.5,7.1 -13.9,9.5 -4.8,2.1 -9.4,4 -13.2,7.7 1.2,1.2 2.4,2.4 3.5,3.5 3.8,-4 7.6,-7.9 11.5,-11.8 -1.3,-1 -2.6,-2 -3.9,-3 -1.6,2.4 -3.2,4.8 -4.9,7.3 -1.3,2 1.4,5 3.4,3.4 1.7,-1.3 3.4,-2.5 5.3,-3.5 -1,-1.3 -2,-2.6 -3,-3.9 -2,2.1 -3.3,4.3 -4.3,7 -0.9,2.6 2.4,3.9 4.2,2.4 2.4,-2 4.7,-4 7.1,-6 -1.3,-1 -2.6,-2 -3.9,-3 -1.9,3.3 -4.2,6.2 -7,8.8 -1.9,1.8 0.1,4.7 2.4,4.2 12.1,-2.5 20.7,-17.4 24.9,-27.9 -1.6,-0.4 -3.2,-0.9 -4.8,-1.3 -1.5,4.1 -3.8,7.4 -7,10.3 1.3,1 2.6,2 3.9,3 3.1,-4.7 5.8,-9.6 8,-14.7 1.1,-2.5 -1.7,-5.1 -3.9,-3 -3.7,3.4 -6.4,7.3 -8.3,12 1.6,0.4 3.2,0.9 4.8,1.3 1.3,-3.3 2.6,-6.7 3.9,-10 1.1,-2.8 -3.1,-4.2 -4.6,-1.9 -2.9,4.3 -5.8,8.7 -10.1,11.8 1.2,0.9 2.4,1.9 3.7,2.8 1.2,-5.2 3.2,-9.9 6.1,-14.3 -1.4,-0.8 -2.9,-1.7 -4.3,-2.5 -4.3,9.4 -11.2,18.1 -20.6,22.8 1.1,1.1 2.3,2.3 3.4,3.4 4.2,-5.9 7.4,-12.3 10.6,-18.8 -1.4,0 -2.9,0 -4.3,0 1.8,3.3 4.4,1.4 7,0.7 -1.1,-0.8 -2.1,-1.6 -3.2,-2.4 -0.4,3.5 -4.5,8.2 -6.2,11.2 -1.5,2.5 1.9,5 3.9,3 2.9,-2.8 6,-5.1 9.4,-7.2 -1.1,-1.1 -2.3,-2.3 -3.4,-3.4 -2.4,4.3 -4.4,8.7 -6.3,13.2 -1,2.5 2.5,3.9 4.2,2.4 2.3,-2 4.6,-3.9 6.8,-5.9 2.7,-2 -0.9,-5.5 -3.3,-3.5 l 0,0 z"
           id="path109" />
      </g>
    </g>
    <g
       transform="matrix(0.45519515,0,0,0.45519515,-94.91089,-158.83361)"
       id="g111">
      <g
         id="g113">
        <path
           inkscape:connector-curvature="0"
           d="m 313.4,457.9 c -3.3,0.9 -6.2,2.2 -9.1,3.9 1.1,1.1 2.3,2.3 3.4,3.4 0.9,-1.8 2,-3.2 3.7,-4.5 2.1,-1.6 1,-5.5 -1.9,-4.6 -4.4,1.4 -7.3,5.1 -11.7,6.5 0.8,1.4 1.6,2.8 2.4,4.2 2.8,-2.4 5.5,-4.8 8,-7.4 1,-1 5.1,-6.6 6.3,-6.6 -0.7,-0.4 -1.4,-0.8 -2.2,-1.2 0.8,1.6 0.6,4.5 0.6,6.3 0,1.5 1.1,2.3 2.5,2.5 4.7,0.5 -1.7,1.9 -2.8,2.1 -2.4,0.6 -4.9,1.1 -7.3,1.6 -5.3,1 -10.7,1.7 -16,2.1 0.4,1.6 0.8,3.1 1.3,4.7 3.8,-2.2 7.6,-4.5 11.4,-6.7 2.8,-1.6 0.3,-6 -2.5,-4.3 -3.8,2.2 -7.6,4.5 -11.4,6.7 -2,1.2 -1.3,4.9 1.3,4.7 5.2,-0.4 10.4,-1.1 15.5,-2 4.5,-0.8 10,-1.3 14.1,-3.4 2.3,-1.2 4.6,-3.6 4.2,-6.4 -0.5,-4 -4.6,-3.7 -7.7,-4 0.8,0.8 1.7,1.7 2.5,2.5 0,-3 0,-6.1 -1.3,-8.9 -0.4,-0.8 -1.3,-1.2 -2.2,-1.2 -3.4,0 -5.1,3.2 -7.3,5.4 -3.4,3.5 -6.9,6.8 -10.6,10 -1.9,1.6 0.1,4.9 2.4,4.2 4.4,-1.4 7.3,-5.1 11.7,-6.5 -0.6,-1.5 -1.3,-3 -1.9,-4.6 -2.4,1.8 -4.1,3.6 -5.4,6.3 -1.1,2.1 1.2,4.8 3.4,3.4 2.5,-1.5 5.1,-2.7 7.9,-3.4 3.1,-0.9 1.8,-5.7 -1.3,-4.8 l 0,0 z"
           id="path115" />
      </g>
    </g>
    <g
       transform="matrix(0.45519515,0,0,0.45519515,-94.91089,-158.83361)"
       id="g117">
      <g
         id="g119">
        <path
           inkscape:connector-curvature="0"
           d="m 292.3,372.6 c 3.2,0 3.2,-5 0,-5 -3.2,0 -3.2,5 0,5 l 0,0 z"
           id="path121" />
      </g>
    </g>
    <g
       transform="matrix(0.45519515,0,0,0.45519515,-94.91089,-158.83361)"
       id="g123">
      <g
         id="g125">
        <path
           inkscape:connector-curvature="0"
           d="m 321.3,465.6 c 7.7,0 7.7,-12 0,-12 -7.7,0 -7.7,12 0,12 l 0,0 z"
           id="path127" />
      </g>
    </g>
    <g
       transform="matrix(0.45519515,0,0,0.45519515,-94.91089,-158.83361)"
       id="g129">
      <g
         id="g131">
        <path
           inkscape:connector-curvature="0"
           d="m 324.9,399.6 c 7.7,0 7.7,-12 0,-12 -7.7,0 -7.8,12 0,12 l 0,0 z"
           id="path133" />
      </g>
    </g>
    <g
       transform="matrix(0.45519515,0,0,0.45519515,-94.91089,-158.83361)"
       id="g135">
      <g
         id="g137">
        <path
           inkscape:connector-curvature="0"
           d="m 324.1,405.6 c 7.7,0 7.7,-12 0,-12 -7.7,0 -7.7,12 0,12 l 0,0 z"
           id="path139" />
      </g>
    </g>
    <g
       transform="matrix(0.45519515,0,0,0.45519515,-94.91089,-158.83361)"
       id="g141">
      <g
         id="g143">
        <path
           inkscape:connector-curvature="0"
           d="m 321.4,397.9 c 7.7,0 7.7,-12 0,-12 -7.7,0 -7.7,12 0,12 l 0,0 z"
           id="path145" />
      </g>
    </g>
    <g
       transform="matrix(0.45519515,0,0,0.45519515,-94.91089,-158.83361)"
       id="g147">
      <g
         id="g149">
        <path
           inkscape:connector-curvature="0"
           d="m 321.3,388.9 c 7.7,0 7.7,-12 0,-12 -7.7,0 -7.7,12 0,12 l 0,0 z"
           id="path151" />
      </g>
    </g>
  </g>
</svg>
