<?xml version="1.0" encoding="utf-8"?>
<!-- Generator: Adobe Illustrator 19.2.1, SVG Export Plug-In . SVG Version: 6.00 Build 0)  -->
<svg version="1.1" id="Calque_1" xmlns="http://www.w3.org/2000/svg" xmlns:xlink="http://www.w3.org/1999/xlink" x="0px" y="0px"
	 viewBox="0 0 595.3 841.9" style="enable-background:new 0 0 595.3 841.9;" xml:space="preserve">
<style type="text/css">
	.st0{fill:#FFFFFF;}
</style>
<g>
	<g>
		<path class="st0" d="M511,665.8c-141.6,0-283.2,0-424.9,0c0-162.5,0-325.1,0-487.8c141.6,0,283.2,0,424.9,0
			C511,340.6,511,503.2,511,665.8z M345.6,193.1c-0.1-0.7-0.1-1.5-0.2-2.2c-5.6-0.3-11.2-0.9-16.8-1c-10.3-0.2-20.7-0.1-31,0
			c-1.3,0-2.7-0.1-4,0.2c-7.9,1.9-15.8,3.8-23.7,5.8c-5.9,1.5-11.8,3-17.4,5c-7,2.5-13.9,5.3-20.6,8.5c-6.7,3.2-13.4,6.8-19.7,10.8
			c-5.7,3.6-10.7,8.4-16.4,12.1c-7.9,5-14,11.8-20.3,18.5c-5.7,6.1-11.3,12.4-16.7,18.7c-4.7,5.5-9.4,11-13.5,16.9
			c-4.3,6.2-8.1,12.8-11.6,19.6c-3.3,6.5-6,13.4-8.9,20.1c-1.1,2.6-2.3,5.2-3.3,7.8c-1.5,3.7-3.2,7.4-4.3,11.3
			c-1.1,3.6-1.3,7.5-2.3,11.2c-1,4-2.7,7.9-3.5,11.9c-0.8,4.2-0.8,8.5-1.5,12.7c-1.1,7-3.3,14-3.7,21c-0.6,12.5-0.2,25-0.2,37.5
			c0,1-0.1,2,0.1,3c1.3,7.9,2.6,15.8,3.9,23.8c0.6,3.8,0.6,7.8,1.7,11.4c1.6,5.7,4.1,11.2,5.9,16.9c1.5,4.9,2.1,10,3.9,14.8
			c2.1,5.4,5.3,10.4,7.5,15.7c5.9,14.4,14,27.5,23.2,39.9c7.1,9.6,15.2,18.7,23.4,27.4c5.2,5.6,11.5,10.3,17.2,15.4
			c0.2,0.2,0.5,0.4,0.8,0.6c6.1,4.2,12.2,8.4,18.3,12.5c4.9,3.3,9.7,6.8,14.9,9.6c5.5,3,11.4,5.3,17.3,7.7c4.9,2,9.9,3.5,14.8,5.6
			c5.4,2.3,10.9,3.5,16.7,4.3c8.2,1.1,16.2,5.3,24.2,5.3c16.8,0,33.7,2.5,50.4-1.6c7.8-1.9,15.8-2.7,23.7-4.2
			c3.1-0.6,6.3-1.4,9.2-2.5c5.3-2,10.5-4.6,15.8-6.6c12.4-4.8,24.4-10.5,35.1-18.6c3-2.3,5.9-4.8,9-7c4.4-3.2,9.4-5.8,13.2-9.6
			c9.6-9.6,18.8-19.6,27.9-29.7c3.5-3.9,6-8.8,9.2-13c2.2-2.9,4.9-5.4,7.8-8.6c-0.1-0.8-0.2-2.4-0.4-5.1c-6.5,1-12.6,2.8-18.6,2.7
			c-13-0.1-26.1-1.2-39.1-1.8c-0.3,0-0.7,0-1-0.1c-6.4-1.9-12.8-3.8-19.2-5.8c-8.6-2.8-17.4-5.3-25.8-8.8
			c-17.4-7.2-32.2-18.8-46.2-30.8c-7.1-6.1-14-13-19.7-21c-5.2-7.3-10.3-14.7-15.6-21.9c-4.7-6.4-8-13.2-11.3-20.2
			c-2.8-6.1-5.3-12.4-7.8-18.6c-2-4.7-4.4-9.3-5.7-14.2c-2.2-8.3-4-16.7-5.4-25.2c-1.1-6.5-1.8-13.1-2-19.6
			c-0.3-8.2-0.3-16.3,0-24.5c0.4-9.1,1.3-18.3,1.9-27.4c0-0.3,0-0.7,0.1-1c1.9-7.1,3.8-14.1,5.9-21.1c2.6-8.8,4.4-18,8.3-26.1
			c6-12.6,11.6-25.4,20.1-36.9c6.5-8.9,12.8-18,20.5-25.9C341.7,196.7,343.7,194.9,345.6,193.1z"/>
		<path d="M345.6,193.1c-1.9,1.8-4,3.6-5.8,5.5c-7.7,8-13.9,17-20.5,25.9c-8.4,11.5-14,24.3-20.1,36.9c-3.9,8.2-5.7,17.4-8.3,26.1
			c-2.1,7-3.9,14.1-5.9,21.1c-0.1,0.3-0.1,0.7-0.1,1c-0.7,9.1-1.6,18.3-1.9,27.4c-0.3,8.2-0.3,16.3,0,24.5c0.3,6.6,0.9,13.1,2,19.6
			c1.4,8.5,3.2,16.9,5.4,25.2c1.3,4.9,3.7,9.5,5.7,14.2c2.6,6.2,5,12.5,7.8,18.6c3.3,7,6.6,13.8,11.3,20.2
			c5.3,7.2,10.4,14.6,15.6,21.9c5.7,8,12.6,14.9,19.7,21c14.1,12.1,28.8,23.6,46.2,30.8c8.4,3.5,17.1,6,25.8,8.8
			c6.4,2.1,12.8,3.9,19.2,5.8c0.3,0.1,0.7,0.1,1,0.1c13,0.7,26.1,1.7,39.1,1.8c6.1,0.1,12.1-1.7,18.6-2.7c0.2,2.7,0.3,4.3,0.4,5.1
			c-2.9,3.2-5.6,5.8-7.8,8.6c-3.2,4.2-5.7,9.1-9.2,13c-9,10.1-18.3,20.1-27.9,29.7c-3.8,3.8-8.8,6.4-13.2,9.6c-3.1,2.3-5.9,4.8-9,7
			c-10.7,8.1-22.7,13.7-35.1,18.6c-5.3,2.1-10.5,4.6-15.8,6.6c-3,1.1-6.1,1.9-9.2,2.5c-7.9,1.5-16,2.3-23.7,4.2
			c-16.7,4.1-33.6,1.5-50.4,1.6c-8.1,0-16.1-4.1-24.2-5.3c-5.8-0.8-11.3-2-16.7-4.3c-4.8-2.1-9.9-3.6-14.8-5.6
			c-5.8-2.4-11.7-4.7-17.3-7.7c-5.2-2.8-10-6.3-14.9-9.6c-6.1-4.1-12.2-8.3-18.3-12.5c-0.3-0.2-0.5-0.4-0.8-0.6
			c-5.8-5.1-12-9.8-17.2-15.4c-8.2-8.8-16.2-17.8-23.4-27.4c-9.1-12.4-17.3-25.5-23.2-39.9c-2.2-5.4-5.4-10.3-7.5-15.7
			c-1.8-4.7-2.4-9.9-3.9-14.8c-1.8-5.7-4.2-11.2-5.9-16.9c-1-3.7-1.1-7.6-1.7-11.4c-1.3-7.9-2.6-15.8-3.9-23.8c-0.2-1-0.1-2-0.1-3
			c0-12.5-0.4-25,0.2-37.5c0.3-7.1,2.5-14,3.7-21c0.7-4.2,0.7-8.6,1.5-12.7c0.8-4,2.5-7.9,3.5-11.9c0.9-3.7,1.2-7.6,2.3-11.2
			c1.1-3.9,2.8-7.6,4.3-11.3c1.1-2.6,2.2-5.2,3.3-7.8c2.9-6.7,5.5-13.6,8.9-20.1c3.5-6.7,7.3-13.3,11.6-19.6
			c4.1-5.9,8.8-11.4,13.5-16.9c5.4-6.4,11-12.6,16.7-18.7c6.2-6.7,12.4-13.5,20.3-18.5c5.7-3.6,10.7-8.4,16.4-12.1
			c6.3-4,12.9-7.6,19.7-10.8c6.7-3.2,13.6-6,20.6-8.5c5.7-2,11.6-3.5,17.4-5c7.9-2,15.8-3.9,23.7-5.8c1.3-0.3,2.6-0.2,4-0.2
			c10.3,0,20.7-0.1,31,0c5.6,0.1,11.2,0.6,16.8,1C345.5,191.7,345.6,192.4,345.6,193.1z M333.7,196.6c-0.1-0.2-0.1-0.4-0.2-0.4
			c-17.2-1.1-34.3,0-51.3,1.8c-0.3,0-0.6,0.2-1,0.3c-6.3,1.8-12.6,3.5-18.8,5.5c-6.5,2.1-13,4.2-19.3,6.7c-4.5,1.8-8.9,4.2-13.2,6.6
			c-7.4,4.2-14.7,8.4-21.9,12.9c-4.3,2.7-8.4,5.9-12.4,9.2c-6.3,5.2-12.6,10.5-18.5,16.2c-4.1,4-7.5,8.7-11.2,13.1
			c-3,3.6-6.2,7.2-8.9,11c-3.4,4.8-6.5,9.8-9.6,14.8c-2.9,4.6-5.9,9.2-8.4,14.1c-3.4,6.5-6.6,13.1-9.6,19.8
			c-2.4,5.5-4.4,11.3-6.4,16.9c-0.8,2.2-1.5,4.6-2,6.9c-0.8,3.4-1.1,6.9-2.2,10.2c-1.7,5.5-3.6,10.9-3.4,16.7c0,0.7,0,1.5-0.1,2.2
			c-1.1,6.9-3.3,13.8-3.3,20.7c-0.1,14.7-1.8,29.5,1.1,44.3c1.6,8.1,1.8,16.3,4.1,24.5c1.6,5.8,1.8,12.1,4.2,18
			c2.5,6.3,3,13.5,5.7,19.8c4.7,11,10.3,21.7,15.8,32.3c2.3,4.4,5.2,8.5,8,12.7c4,5.9,7.9,11.9,12.4,17.3c3.6,4.4,8.2,8.1,12.1,12.3
			c2.8,3.1,4.9,6.9,8,9.6c5.9,5.2,12.2,10,18.4,14.9c5,3.9,9.8,8,15.2,11.3c6.3,3.9,13.1,7,19.7,10.5c5.9,3.1,11.8,5.8,18.4,7.3
			c4.8,1.1,9.4,3.3,14.1,5c1.1,0.4,2.1,0.9,3.3,1.1c4.2,0.5,8.6,0.3,12.6,1.6c8,2.5,16,4,24.3,3.8c9.3-0.2,18.7,0,28,0
			c3.2,0,6.6,0.4,9.7-0.2c4.4-0.9,8.6-2.7,13-3.7c6.4-1.5,13.1-2.1,19.4-4c9.2-2.9,18.4-6.3,27.2-10.4c7.2-3.4,13.5-8.8,20.7-12.2
			c12.2-5.7,21.1-15.4,30.8-24.2c7.6-6.9,14.2-15,21-22.8c3.7-4.2,6.9-8.8,11.1-14.2c-2.8-0.1-4-0.2-5.3-0.3
			c-12.5-1-25.1,1.8-37.7-1.8c-9.3-2.7-19.2-3.5-28.6-6.3c-9.4-2.8-18.7-6.3-27.5-10.6c-7.3-3.5-13.7-8.8-20.7-12.9
			c-9.2-5.3-17.7-11.5-25-19.2c-8-8.4-15.9-16.9-23.6-25.7c-4.3-4.9-8.3-10.2-11.7-15.7c-4-6.4-7.4-13.2-10.8-20
			c-3.2-6.3-6.5-12.7-8.8-19.3c-2.5-7.4-3.7-15.2-5.8-22.8c-1.7-6.4-4.5-12.7-5.6-19.2c-1.4-8.1-2.2-16.4-2.1-24.6
			c0.2-15.8,1.2-31.6,1.9-47.4c0-0.7,0.1-1.3,0.3-2c1.9-6.2,4-12.4,5.7-18.7c1.6-6.2,2.3-12.6,4.3-18.7c2.1-6.6,4.7-13.1,7.8-19.4
			c3.8-7.8,8.4-15.2,12.5-22.8C316,216.9,324.6,206.5,333.7,196.6z"/>
		<path class="st0" d="M333.7,196.6c-9.2,9.9-17.7,20.3-24.3,32.3c-4.2,7.6-8.7,15-12.5,22.8c-3.1,6.2-5.7,12.8-7.8,19.4
			c-1.9,6.1-2.6,12.5-4.3,18.7c-1.7,6.3-3.8,12.5-5.7,18.7c-0.2,0.6-0.2,1.3-0.3,2c-0.7,15.8-1.7,31.6-1.9,47.4
			c-0.1,8.2,0.7,16.5,2.1,24.6c1.1,6.5,3.8,12.8,5.6,19.2c2,7.6,3.3,15.4,5.8,22.8c2.3,6.7,5.6,13,8.8,19.3
			c3.4,6.8,6.8,13.6,10.8,20c3.4,5.5,7.4,10.8,11.7,15.7c7.6,8.7,15.6,17.2,23.6,25.7c7.3,7.7,15.8,13.9,25,19.2
			c7,4.1,13.5,9.4,20.7,12.9c8.8,4.3,18.1,7.8,27.5,10.6c9.3,2.8,19.2,3.5,28.6,6.3c12.5,3.7,25.1,0.8,37.7,1.8
			c1.3,0.1,2.5,0.1,5.3,0.3c-4.1,5.3-7.4,10-11.1,14.2c-6.8,7.8-13.4,15.9-21,22.8c-9.7,8.7-18.6,18.4-30.8,24.2
			c-7.2,3.4-13.5,8.8-20.7,12.2c-8.8,4.1-17.9,7.4-27.2,10.4c-6.3,2-13,2.6-19.4,4c-4.4,1-8.6,2.9-13,3.7c-3.1,0.6-6.5,0.2-9.7,0.2
			c-9.3,0-18.7-0.1-28,0c-8.4,0.2-16.4-1.3-24.3-3.8c-4-1.3-8.4-1-12.6-1.6c-1.1-0.1-2.2-0.7-3.3-1.1c-4.7-1.7-9.3-3.9-14.1-5
			c-6.6-1.5-12.5-4.2-18.4-7.3c-6.6-3.5-13.4-6.6-19.7-10.5c-5.3-3.3-10.2-7.4-15.2-11.3c-6.2-4.9-12.5-9.6-18.4-14.9
			c-3.1-2.7-5.2-6.5-8-9.6c-3.9-4.2-8.5-7.9-12.1-12.3c-4.5-5.5-8.4-11.5-12.4-17.3c-2.8-4.1-5.8-8.2-8-12.7
			c-5.5-10.6-11.1-21.3-15.8-32.3c-2.7-6.3-3.2-13.4-5.7-19.8c-2.4-5.9-2.6-12.1-4.2-18c-2.2-8.2-2.5-16.4-4.1-24.5
			c-2.9-14.8-1.2-29.6-1.1-44.3c0-6.9,2.1-13.8,3.3-20.7c0.1-0.7,0.1-1.5,0.1-2.2c-0.1-5.8,1.7-11.2,3.4-16.7
			c1-3.3,1.4-6.8,2.2-10.2c0.5-2.3,1.2-4.6,2-6.9c2.1-5.7,4-11.4,6.4-16.9c2.9-6.7,6.1-13.3,9.6-19.8c2.5-4.8,5.5-9.4,8.4-14.1
			c3.1-5,6.2-10,9.6-14.8c2.7-3.8,5.9-7.4,8.9-11c3.7-4.4,7.1-9.1,11.2-13.1c5.9-5.7,12.2-11,18.5-16.2c3.9-3.3,8-6.5,12.4-9.2
			c7.2-4.5,14.5-8.8,21.9-12.9c4.3-2.4,8.6-4.8,13.2-6.6c6.3-2.5,12.8-4.6,19.3-6.7c6.2-2,12.5-3.7,18.8-5.5c0.3-0.1,0.6-0.2,1-0.3
			c17.1-1.8,34.2-2.9,51.3-1.8C333.6,196.2,333.7,196.4,333.7,196.6z"/>
	</g>
</g>
</svg>
